<svg width="21" height="18" viewBox="0 0 21 18" fill="none" xmlns="http://www.w3.org/2000/svg">
<path d="M18.16 0.990044C15.52 -0.809956 12.26 0.0300438 10.5 2.09004C8.74003 0.0300438 5.48003 -0.819956 2.84003 0.990044C1.44003 1.95004 0.56003 3.57004 0.50003 5.28004C0.36003 9.16004 3.80003 12.27 9.05003 17.04L9.15003 17.13C9.91003 17.82 11.08 17.82 11.84 17.12L11.95 17.02C17.2 12.26 20.63 9.15004 20.5 5.27004C20.44 3.57004 19.56 1.95004 18.16 0.990044ZM10.6 15.55L10.5 15.65L10.4 15.55C5.64003 11.24 2.50003 8.39004 2.50003 5.50004C2.50003 3.50004 4.00003 2.00004 6.00003 2.00004C7.54003 2.00004 9.04003 2.99004 9.57003 4.36004H11.44C11.96 2.99004 13.46 2.00004 15 2.00004C17 2.00004 18.5 3.50004 18.5 5.50004C18.5 8.39004 15.36 11.24 10.6 15.55Z" fill="#9E9E9E"/>
</svg>
