<svg width="19" height="20" viewBox="0 0 19 20" fill="none" xmlns="http://www.w3.org/2000/svg">
<path fill-rule="evenodd" clip-rule="evenodd" d="M13.5 12C14.7885 12.0001 16.0272 12.4975 16.9578 13.3887C17.8884 14.2798 18.4391 15.4958 18.495 16.783L18.5 17V19C18.4997 19.2549 18.4021 19.5 18.2272 19.6854C18.0522 19.8707 17.813 19.9822 17.5586 19.9972C17.3042 20.0121 17.0536 19.9293 16.8582 19.7657C16.6627 19.6021 16.5371 19.3701 16.507 19.117L16.5 19V17C16.5 16.2348 16.2077 15.4985 15.6827 14.9417C15.1578 14.385 14.4399 14.0499 13.676 14.005L13.5 14H5.5C4.73479 14 3.99849 14.2923 3.44174 14.8173C2.88499 15.3422 2.54989 16.0601 2.505 16.824L2.5 17V19C2.49972 19.2549 2.40212 19.5 2.22715 19.6854C2.05218 19.8707 1.81305 19.9822 1.55861 19.9972C1.30416 20.0121 1.05362 19.9293 0.858167 19.7657C0.662714 19.6021 0.537104 19.3701 0.507 19.117L0.5 19V17C0.500074 15.7115 0.997541 14.4728 1.88866 13.5422C2.77978 12.6116 3.99575 12.0609 5.283 12.005L5.5 12H13.5ZM9.5 0C10.8261 0 12.0979 0.526784 13.0355 1.46447C13.9732 2.40215 14.5 3.67392 14.5 5C14.5 6.32608 13.9732 7.59785 13.0355 8.53553C12.0979 9.47322 10.8261 10 9.5 10C8.17392 10 6.90215 9.47322 5.96447 8.53553C5.02678 7.59785 4.5 6.32608 4.5 5C4.5 3.67392 5.02678 2.40215 5.96447 1.46447C6.90215 0.526784 8.17392 0 9.5 0ZM9.5 2C9.10603 2 8.71593 2.0776 8.35195 2.22836C7.98797 2.37913 7.65726 2.6001 7.37868 2.87868C7.1001 3.15726 6.87913 3.48797 6.72836 3.85195C6.5776 4.21593 6.5 4.60603 6.5 5C6.5 5.39397 6.5776 5.78407 6.72836 6.14805C6.87913 6.51203 7.1001 6.84274 7.37868 7.12132C7.65726 7.3999 7.98797 7.62087 8.35195 7.77164C8.71593 7.9224 9.10603 8 9.5 8C10.2956 8 11.0587 7.68393 11.6213 7.12132C12.1839 6.55871 12.5 5.79565 12.5 5C12.5 4.20435 12.1839 3.44129 11.6213 2.87868C11.0587 2.31607 10.2956 2 9.5 2Z" fill="#9E9E9E"/>
</svg>
