<svg width="21" height="20" viewBox="0 0 21 20" fill="none" xmlns="http://www.w3.org/2000/svg">
<path d="M0.5 4C0.5 4.55228 0.947715 5 1.5 5H4.5C5.05228 5 5.5 4.55228 5.5 4V1C5.5 0.447715 5.05228 0 4.5 0H1.5C0.947715 0 0.5 0.447715 0.5 1V4ZM8 19C8 19.5523 8.44772 20 9 20H12C12.5523 20 13 19.5523 13 19V16C13 15.4477 12.5523 15 12 15H9C8.44772 15 8 15.4477 8 16V19ZM0.5 19C0.5 19.5523 0.947715 20 1.5 20H4.5C5.05228 20 5.5 19.5523 5.5 19V16C5.5 15.4477 5.05228 15 4.5 15H1.5C0.947715 15 0.5 15.4477 0.5 16V19ZM0.5 11.5C0.5 12.0523 0.947715 12.5 1.5 12.5H4.5C5.05228 12.5 5.5 12.0523 5.5 11.5V8.5C5.5 7.94772 5.05228 7.5 4.5 7.5H1.5C0.947715 7.5 0.5 7.94772 0.5 8.5V11.5ZM8 11.5C8 12.0523 8.44772 12.5 9 12.5H12C12.5523 12.5 13 12.0523 13 11.5V8.5C13 7.94772 12.5523 7.5 12 7.5H9C8.44772 7.5 8 7.94772 8 8.5V11.5ZM16.5 0C15.9477 0 15.5 0.447715 15.5 1V4C15.5 4.55228 15.9477 5 16.5 5H19.5C20.0523 5 20.5 4.55228 20.5 4V1C20.5 0.447715 20.0523 0 19.5 0H16.5ZM8 4C8 4.55228 8.44772 5 9 5H12C12.5523 5 13 4.55228 13 4V1C13 0.447715 12.5523 0 12 0H9C8.44772 0 8 0.447715 8 1V4ZM15.5 11.5C15.5 12.0523 15.9477 12.5 16.5 12.5H19.5C20.0523 12.5 20.5 12.0523 20.5 11.5V8.5C20.5 7.94772 20.0523 7.5 19.5 7.5H16.5C15.9477 7.5 15.5 7.94772 15.5 8.5V11.5ZM15.5 19C15.5 19.5523 15.9477 20 16.5 20H19.5C20.0523 20 20.5 19.5523 20.5 19V16C20.5 15.4477 20.0523 15 19.5 15H16.5C15.9477 15 15.5 15.4477 15.5 16V19Z" fill="#9E9E9E"/>
</svg>
