<svg width="61" height="60" viewBox="0 0 61 60" fill="none" xmlns="http://www.w3.org/2000/svg">
<g filter="url(#filter0_d_1_10880)">
<path d="M14.7643 0.838898C25.2442 -0.279633 35.7558 -0.279633 46.2357 0.838898C50.4145 1.28489 53.7151 4.58553 54.1611 8.76469C55.2796 19.2446 55.2796 29.7558 54.1611 40.2357C53.7151 44.4145 50.4145 47.7151 46.2357 48.1611C35.7558 49.2796 25.2446 49.2796 14.7647 48.1611C10.5855 47.7151 7.28489 44.4145 6.8389 40.2357C5.72037 29.7558 5.72037 19.2446 6.8389 8.76469C7.28489 4.58553 10.5852 1.28489 14.7643 0.838898Z" fill="url(#paint0_linear_1_10880)"/>
<path d="M22.5777 35.2206L22.5817 35.222L21.1247 38.0793C20.5928 39.1223 19.4148 39.4797 18.4936 38.8775C17.5724 38.2754 17.2568 36.9416 17.7886 35.8986L18.862 33.7937L18.965 33.5917C19.149 33.2923 19.6029 32.7757 20.511 32.8728C20.511 32.8728 22.648 33.1354 22.8026 34.3929C22.8026 34.3929 22.8237 34.8067 22.5777 35.2206ZM43.2439 27.9225H38.7003C38.3909 27.8991 38.2557 27.774 38.2027 27.7012L38.1993 27.6946L33.3354 18.1565L33.3291 18.1613L33.0374 17.6877C32.5594 16.86 31.8002 18.977 31.8002 18.977C30.8939 21.3359 31.9288 24.0179 32.2897 24.8284L39.0453 38.0763C39.5771 39.1193 40.7552 39.4767 41.6764 38.8745C42.5975 38.2724 42.9132 36.9387 42.3814 35.8957L40.692 32.5829C40.6593 32.5027 40.6024 32.2847 40.9488 32.2839H43.2439C44.3077 32.2839 45.17 31.3075 45.17 30.1032C45.17 28.8988 44.3077 27.9225 43.2439 27.9225ZM34.4187 30.8871C34.4187 30.8871 34.6612 32.2838 33.7228 32.2838H32.7843V32.2839H16.9261C15.8623 32.2839 15 31.3075 15 30.1032C15 28.8988 15.8623 27.9225 16.9261 27.9225H21.2443C21.9415 27.8768 22.1068 27.4211 22.1068 27.4211L22.1106 27.4233L27.7473 16.3695L27.7456 16.3691C27.8484 16.1555 27.7628 15.9538 27.748 15.9218L25.8864 12.2714C25.3545 11.2284 25.6702 9.89468 26.5914 9.29253C27.5126 8.69033 28.6906 9.04771 29.2224 10.0907L30.0858 11.7838L30.9476 10.0937C31.4794 9.05071 32.6574 8.69334 33.5786 9.29554C34.4999 9.89773 34.8155 11.2314 34.2836 12.2744L26.4399 27.656C26.4056 27.7497 26.3951 27.8966 26.6503 27.9225H31.3388L31.3398 27.9742C31.3398 27.9742 34.0496 28.022 34.4187 30.8871Z" fill="white"/>
</g>
<defs>
<filter id="filter0_d_1_10880" x="0.78" y="0" width="59.44" height="59.44" filterUnits="userSpaceOnUse" color-interpolation-filters="sRGB">
<feFlood flood-opacity="0" result="BackgroundImageFix"/>
<feColorMatrix in="SourceAlpha" type="matrix" values="0 0 0 0 0 0 0 0 0 0 0 0 0 0 0 0 0 0 127 0" result="hardAlpha"/>
<feOffset dy="5.22"/>
<feGaussianBlur stdDeviation="2.61"/>
<feComposite in2="hardAlpha" operator="out"/>
<feColorMatrix type="matrix" values="0 0 0 0 0 0 0 0 0 0 0 0 0 0 0 0 0 0 0.1 0"/>
<feBlend mode="normal" in2="BackgroundImageFix" result="effect1_dropShadow_1_10880"/>
<feBlend mode="normal" in="SourceGraphic" in2="effect1_dropShadow_1_10880" result="shape"/>
</filter>
<linearGradient id="paint0_linear_1_10880" x1="30.5" y1="49" x2="30" y2="-8.11334e-07" gradientUnits="userSpaceOnUse">
<stop offset="0.473958" stop-color="#1D76F2"/>
<stop offset="1" stop-color="#00C2FF"/>
</linearGradient>
</defs>
</svg>
