<svg width="61" height="60" viewBox="0 0 61 60" fill="none" xmlns="http://www.w3.org/2000/svg">
<g filter="url(#filter0_d_1_10854)">
<path d="M46.2357 48.1611C35.7558 49.2796 25.2442 49.2796 14.7643 48.1611C10.5855 47.7151 7.28489 44.4145 6.8389 40.2353C5.72037 29.7554 5.72037 19.2442 6.8389 8.76431C7.28489 4.58553 10.5855 1.28489 14.7643 0.838898C25.2442 -0.279633 35.7554 -0.279633 46.2353 0.838898C50.4145 1.28489 53.7151 4.58553 54.1611 8.76431C55.2796 19.2442 55.2796 29.7554 54.1611 40.2353C53.7151 44.4145 50.4148 47.7151 46.2357 48.1611Z" fill="#005CFF"/>
<path d="M29.2646 20.4421C29.2646 17.2753 26.6893 14.7 23.5225 14.7H14.9092V34.7976H23.5225C26.6893 34.7976 29.2646 32.2222 29.2646 29.0554C29.2646 27.332 28.4863 25.8019 27.2807 24.7488C28.4863 23.6957 29.2646 22.1655 29.2646 20.4421ZM26.3936 29.0554C26.3936 30.6383 25.1053 31.9265 23.5225 31.9265H17.7803V26.1843H23.5225C25.1053 26.1843 26.3936 27.4726 26.3936 29.0554ZM17.7803 23.3132V17.571H23.5225C25.1053 17.571 26.3936 18.8593 26.3936 20.4421C26.3936 22.025 25.1053 23.3132 23.5225 23.3132H17.7803Z" fill="white"/>
<path d="M46.4912 27.6195C46.4912 23.662 43.271 20.4418 39.3135 20.4418C35.356 20.4418 32.1357 23.662 32.1357 27.6195C32.1357 31.577 35.356 34.7972 39.3135 34.7972C41.8676 34.7972 44.2497 33.4219 45.5293 31.2099L43.0452 29.7713C42.2758 31.1003 40.8458 31.9261 39.3135 31.9261C37.442 31.9261 35.8454 30.7261 35.2521 29.0551H46.4912V27.6195ZM35.2521 26.184C35.845 24.5129 37.442 23.3129 39.3135 23.3129C41.1849 23.3129 42.7816 24.5129 43.3749 26.184H35.2521Z" fill="white"/>
<path d="M33.5713 14.6996H45.0557V17.5707H33.5713V14.6996Z" fill="white"/>
</g>
<defs>
<filter id="filter0_d_1_10854" x="0.78" y="0" width="59.44" height="59.44" filterUnits="userSpaceOnUse" color-interpolation-filters="sRGB">
<feFlood flood-opacity="0" result="BackgroundImageFix"/>
<feColorMatrix in="SourceAlpha" type="matrix" values="0 0 0 0 0 0 0 0 0 0 0 0 0 0 0 0 0 0 127 0" result="hardAlpha"/>
<feOffset dy="5.22"/>
<feGaussianBlur stdDeviation="2.61"/>
<feComposite in2="hardAlpha" operator="out"/>
<feColorMatrix type="matrix" values="0 0 0 0 0 0 0 0 0 0 0 0 0 0 0 0 0 0 0.1 0"/>
<feBlend mode="normal" in2="BackgroundImageFix" result="effect1_dropShadow_1_10854"/>
<feBlend mode="normal" in="SourceGraphic" in2="effect1_dropShadow_1_10854" result="shape"/>
</filter>
</defs>
</svg>
