<svg width="61" height="60" viewBox="0 0 61 60" fill="none" xmlns="http://www.w3.org/2000/svg">
<g filter="url(#filter0_d_1_10861)">
<path d="M46.2357 48.1611C35.7558 49.2796 25.2442 49.2796 14.7643 48.1611C10.5855 47.7151 7.28489 44.4145 6.8389 40.2353C5.72037 29.7554 5.72037 19.2442 6.8389 8.76431C7.28489 4.58553 10.5855 1.28489 14.7643 0.838898C25.2442 -0.279633 35.7554 -0.279633 46.2353 0.838898C50.4145 1.28489 53.7151 4.58553 54.1611 8.76431C55.2796 19.2442 55.2796 29.7554 54.1611 40.2353C53.7151 44.4145 50.4148 47.7151 46.2357 48.1611Z" fill="#DD3E7B"/>
<path fill-rule="evenodd" clip-rule="evenodd" d="M30.5663 39.6455C22.2493 39.6455 15.4834 32.8791 15.4834 24.5635C15.4834 16.2495 22.2493 9.48309 30.5663 9.48309C38.8834 9.48309 45.6494 16.2495 45.6494 24.5635C45.6494 32.8791 38.8834 39.6455 30.5663 39.6455ZM42.6206 26.5204C42.2033 26.3904 38.8417 25.3861 35.0163 25.998C36.6131 30.3852 37.2632 33.9609 37.3879 34.702C40.1267 32.8502 42.0771 29.9174 42.6206 26.5204ZM35.3361 35.8205C35.1533 34.7497 34.4446 31.016 32.7304 26.5632C32.7046 26.5722 32.6778 26.5801 32.6499 26.59C25.7648 28.9876 23.2929 33.7652 23.0729 34.2142C25.1421 35.8275 27.7442 36.7905 30.5663 36.7905C32.2571 36.7905 33.8698 36.4438 35.3361 35.8205ZM21.4964 32.745C21.7725 32.2712 25.1236 26.7241 31.4197 24.6887C31.5791 24.637 31.7395 24.5894 31.9004 24.5446C31.5945 23.8498 31.2613 23.1574 30.9107 22.472C24.8143 24.2968 18.8982 24.2213 18.3632 24.2095C18.3597 24.3336 18.3578 24.4583 18.3578 24.5824C18.3578 27.7185 19.5463 30.5809 21.4964 32.745ZM18.6155 22.0826C19.1619 22.0895 24.1914 22.1104 29.9024 20.5955C27.8799 16.9989 25.6979 13.9756 25.3755 13.5356C21.9602 15.1457 19.4067 18.2943 18.6155 22.0826ZM27.7055 12.7155C28.0432 13.167 30.2604 16.1859 32.261 19.8619C36.603 18.2328 38.4398 15.7647 38.6589 15.4527C36.5033 13.5386 33.6681 12.3768 30.5663 12.3768C29.581 12.3768 28.6233 12.494 27.7055 12.7155ZM40.0163 16.8629C39.7596 17.2116 37.7127 19.8341 33.1992 21.6753C33.4834 22.2584 33.7555 22.8504 34.0099 23.4445C34.0988 23.6561 34.1866 23.8658 34.2721 24.0743C38.3345 23.5637 42.3707 24.3818 42.7745 24.4682C42.7471 21.5869 41.7175 18.941 40.0163 16.8629Z" fill="white"/>
</g>
<defs>
<filter id="filter0_d_1_10861" x="0.78" y="0" width="59.44" height="59.44" filterUnits="userSpaceOnUse" color-interpolation-filters="sRGB">
<feFlood flood-opacity="0" result="BackgroundImageFix"/>
<feColorMatrix in="SourceAlpha" type="matrix" values="0 0 0 0 0 0 0 0 0 0 0 0 0 0 0 0 0 0 127 0" result="hardAlpha"/>
<feOffset dy="5.22"/>
<feGaussianBlur stdDeviation="2.61"/>
<feComposite in2="hardAlpha" operator="out"/>
<feColorMatrix type="matrix" values="0 0 0 0 0 0 0 0 0 0 0 0 0 0 0 0 0 0 0.1 0"/>
<feBlend mode="normal" in2="BackgroundImageFix" result="effect1_dropShadow_1_10861"/>
<feBlend mode="normal" in="SourceGraphic" in2="effect1_dropShadow_1_10861" result="shape"/>
</filter>
</defs>
</svg>
