<svg width="61" height="60" viewBox="0 0 61 60" fill="none" xmlns="http://www.w3.org/2000/svg">
<g filter="url(#filter0_d_1_10805)">
<path d="M46.2357 48.1611C35.7558 49.2796 25.2442 49.2796 14.7643 48.1611C10.5855 47.7151 7.28489 44.4145 6.8389 40.2353C5.72037 29.7554 5.72037 19.2442 6.8389 8.76431C7.28489 4.58553 10.5855 1.28489 14.7643 0.838898C25.2442 -0.279633 35.7554 -0.279633 46.2353 0.838898C50.4145 1.28489 53.7151 4.58553 54.1611 8.76431C55.2796 19.2442 55.2796 29.7554 54.1611 40.2353C53.7151 44.4145 50.4148 47.7151 46.2357 48.1611Z" fill="url(#paint0_linear_1_10805)"/>
<path d="M17.4108 15.1455C17.1708 15.1455 16.9446 15.1858 16.7306 15.2687L21.0172 19.5649L25.3513 23.938L25.4304 24.0304L25.5569 24.1536L25.6835 24.2768L25.9365 24.5385L29.6537 28.2496C29.7156 28.287 29.8949 28.4488 30.0351 28.5169C30.2156 28.6048 30.4112 28.6857 30.6128 28.6927C30.8305 28.7003 31.0529 28.6396 31.2487 28.5469C31.3953 28.4774 31.4605 28.3779 31.6309 28.2496L35.9333 23.9226L40.2832 19.5649L44.4749 15.3611C44.2058 15.2191 43.9077 15.1455 43.5891 15.1455H17.4108ZM16.0979 15.6691C15.6408 16.0907 15.3545 16.7246 15.3545 17.4399V31.5448C15.3545 32.124 15.5456 32.6501 15.8607 33.0539L16.4617 32.4995L20.9381 28.265L24.9084 24.5232L24.8293 24.4308L20.4794 20.073L16.1296 15.6999L16.0979 15.6691ZM45.0443 15.8076L40.8052 20.073L36.4711 24.4308L36.392 24.5078L40.5205 28.4036L44.9969 32.6381L45.2658 32.8845C45.5068 32.508 45.6454 32.0443 45.6454 31.5448V17.4399C45.6454 16.8021 45.4184 16.2238 45.0443 15.8076ZM25.4146 25.0313L21.4601 28.7731L16.9679 33.0077L16.3985 33.5466C16.6987 33.7348 17.0403 33.8546 17.4108 33.8546H43.5891C44.0345 33.8546 44.4385 33.6878 44.7754 33.4234L44.4907 33.1463L39.9985 28.9117L35.8701 25.0313L32.1529 28.7577C31.9517 28.8876 31.8173 29.0316 31.6208 29.12C31.3047 29.2623 30.9582 29.3827 30.6099 29.3775C30.2607 29.3723 29.9182 29.2393 29.6049 29.0892C29.4475 29.0139 29.3637 28.939 29.1792 28.7885L25.4146 25.0313Z" fill="white"/>
</g>
<defs>
<filter id="filter0_d_1_10805" x="0.777778" y="0" width="59.4444" height="59.4444" filterUnits="userSpaceOnUse" color-interpolation-filters="sRGB">
<feFlood flood-opacity="0" result="BackgroundImageFix"/>
<feColorMatrix in="SourceAlpha" type="matrix" values="0 0 0 0 0 0 0 0 0 0 0 0 0 0 0 0 0 0 127 0" result="hardAlpha"/>
<feOffset dy="5.22222"/>
<feGaussianBlur stdDeviation="2.61111"/>
<feComposite in2="hardAlpha" operator="out"/>
<feColorMatrix type="matrix" values="0 0 0 0 0 0 0 0 0 0 0 0 0 0 0 0 0 0 0.1 0"/>
<feBlend mode="normal" in2="BackgroundImageFix" result="effect1_dropShadow_1_10805"/>
<feBlend mode="normal" in="SourceGraphic" in2="effect1_dropShadow_1_10805" result="shape"/>
</filter>
<linearGradient id="paint0_linear_1_10805" x1="30.8431" y1="48.8033" x2="30.8908" y2="0.591545" gradientUnits="userSpaceOnUse">
<stop stop-color="#70EFFF"/>
<stop offset="1" stop-color="#5770FF"/>
</linearGradient>
</defs>
</svg>
