<svg width="61" height="60" viewBox="0 0 61 60" fill="none" xmlns="http://www.w3.org/2000/svg">
<g filter="url(#filter0_d_1_10756)">
<path d="M46.2357 47.7272C35.7558 48.8357 25.2442 48.8357 14.7643 47.7272C10.5855 47.2852 7.28489 44.0143 6.8389 39.8728C5.72037 29.4874 5.72037 19.0708 6.8389 8.68536C7.28489 4.54421 10.5855 1.27331 14.7643 0.83134C25.2442 -0.277113 35.7554 -0.277113 46.2353 0.83134C50.4145 1.27331 53.7151 4.54421 54.1611 8.68536C55.2796 19.0708 55.2796 29.4874 54.1611 39.8728C53.7151 44.0143 50.4148 47.2852 46.2357 47.7272Z" fill="url(#paint0_linear_1_10756)"/>
<path d="M39.0145 33.012L40.0293 26.5093H33.6764V22.2901C33.6764 20.5127 34.5623 18.7763 37.4102 18.7763H40.3V13.2414C40.3 13.2414 37.6776 12.8018 35.1712 12.8018C29.9394 12.8018 26.5181 15.9139 26.5181 21.5532V26.5093H20.7V33.012H26.5181V48.728C27.6843 48.9082 28.8795 49 30.0973 49C31.315 49 32.5102 48.9051 33.6764 48.728V33.012H39.0145Z" fill="white"/>
</g>
<defs>
<filter id="filter0_d_1_10756" x="0.777778" y="0" width="59.4444" height="59.4444" filterUnits="userSpaceOnUse" color-interpolation-filters="sRGB">
<feFlood flood-opacity="0" result="BackgroundImageFix"/>
<feColorMatrix in="SourceAlpha" type="matrix" values="0 0 0 0 0 0 0 0 0 0 0 0 0 0 0 0 0 0 127 0" result="hardAlpha"/>
<feOffset dy="5.22222"/>
<feGaussianBlur stdDeviation="2.61111"/>
<feComposite in2="hardAlpha" operator="out"/>
<feColorMatrix type="matrix" values="0 0 0 0 0 0 0 0 0 0 0 0 0 0 0 0 0 0 0.1 0"/>
<feBlend mode="normal" in2="BackgroundImageFix" result="effect1_dropShadow_1_10756"/>
<feBlend mode="normal" in="SourceGraphic" in2="effect1_dropShadow_1_10756" result="shape"/>
</filter>
<linearGradient id="paint0_linear_1_10756" x1="30.5" y1="0" x2="30.5" y2="48.5586" gradientUnits="userSpaceOnUse">
<stop stop-color="#18AEFF"/>
<stop offset="1" stop-color="#0165E2"/>
</linearGradient>
</defs>
</svg>
