<svg width="61" height="60" viewBox="0 0 61 60" fill="none" xmlns="http://www.w3.org/2000/svg">
<g filter="url(#filter0_d_1_10883)">
<path d="M46.2357 48.1611C35.7558 49.2796 25.2442 49.2796 14.7643 48.1611C10.5855 47.7151 7.28489 44.4145 6.8389 40.2353C5.72037 29.7554 5.72037 19.2442 6.8389 8.76431C7.28489 4.58553 10.5855 1.28489 14.7643 0.838898C25.2442 -0.279633 35.7554 -0.279633 46.2353 0.838898C50.4145 1.28489 53.7151 4.58553 54.1611 8.76431C55.2796 19.2442 55.2796 29.7554 54.1611 40.2353C53.7151 44.4145 50.4148 47.7151 46.2357 48.1611Z" fill="white"/>
<path d="M45.1696 25.4263C45.1696 24.4332 45.0797 23.4904 44.9256 22.5728H30.4121V28.2422H38.722C38.3496 30.1027 37.2578 31.674 35.6395 32.7425V36.5138H40.5972C43.4999 33.8865 45.1696 30.0147 45.1696 25.4263Z" fill="#4285F4"/>
<path d="M30.4129 40.1721C34.5743 40.1721 38.0549 38.8144 40.598 36.514L35.6403 32.7427C34.2532 33.6478 32.4936 34.2009 30.4129 34.2009C26.3928 34.2009 22.9892 31.5485 21.769 27.9658H16.6572V31.8502C19.1874 36.778 24.3892 40.1721 30.4129 40.1721Z" fill="#34A853"/>
<path d="M21.7687 27.966C21.4476 27.0609 21.2806 26.093 21.2806 25.0873C21.2806 24.0816 21.4604 23.1137 21.7687 22.2086V18.3242H16.6568C15.6037 20.3607 15 22.6486 15 25.0873C15 27.5261 15.6037 29.8139 16.6568 31.8504L21.7687 27.966Z" fill="#FBBC05"/>
<path d="M30.4129 15.9731C32.6862 15.9731 34.7156 16.7399 36.321 18.2358L40.7136 13.9366C38.0549 11.4979 34.5743 10.002 30.4129 10.002C24.3892 10.002 19.1874 13.3961 16.6572 18.3238L21.769 22.2082C22.9892 18.6255 26.3928 15.9731 30.4129 15.9731Z" fill="#EA4335"/>
</g>
<defs>
<filter id="filter0_d_1_10883" x="0.78" y="0" width="59.44" height="59.44" filterUnits="userSpaceOnUse" color-interpolation-filters="sRGB">
<feFlood flood-opacity="0" result="BackgroundImageFix"/>
<feColorMatrix in="SourceAlpha" type="matrix" values="0 0 0 0 0 0 0 0 0 0 0 0 0 0 0 0 0 0 127 0" result="hardAlpha"/>
<feOffset dy="5.22"/>
<feGaussianBlur stdDeviation="2.61"/>
<feComposite in2="hardAlpha" operator="out"/>
<feColorMatrix type="matrix" values="0 0 0 0 0 0 0 0 0 0 0 0 0 0 0 0 0 0 0.1 0"/>
<feBlend mode="normal" in2="BackgroundImageFix" result="effect1_dropShadow_1_10883"/>
<feBlend mode="normal" in="SourceGraphic" in2="effect1_dropShadow_1_10883" result="shape"/>
</filter>
</defs>
</svg>
