<svg width="61" height="60" viewBox="0 0 61 60" fill="none" xmlns="http://www.w3.org/2000/svg">
<g filter="url(#filter0_d_1_10724)">
<path d="M46.2357 48.1611C35.7558 49.2796 25.2442 49.2796 14.7643 48.1611C10.5855 47.7151 7.28489 44.4145 6.8389 40.2353C5.72037 29.7554 5.72037 19.2442 6.8389 8.76431C7.28489 4.58553 10.5855 1.28489 14.7643 0.838898C25.2442 -0.279633 35.7554 -0.279633 46.2353 0.838898C50.4145 1.28489 53.7151 4.58553 54.1611 8.76431C55.2796 19.2442 55.2796 29.7554 54.1611 40.2353C53.7151 44.4145 50.4148 47.7151 46.2357 48.1611Z" fill="url(#paint0_radial_1_10724)"/>
<path d="M46.2357 48.1611C35.7558 49.2796 25.2442 49.2796 14.7643 48.1611C10.5855 47.7151 7.28489 44.4145 6.8389 40.2353C5.72037 29.7554 5.72037 19.2442 6.8389 8.76431C7.28489 4.58553 10.5855 1.28489 14.7643 0.838898C25.2442 -0.279633 35.7554 -0.279633 46.2353 0.838898C50.4145 1.28489 53.7151 4.58553 54.1611 8.76431C55.2796 19.2442 55.2796 29.7554 54.1611 40.2353C53.7151 44.4145 50.4148 47.7151 46.2357 48.1611Z" fill="url(#paint1_radial_1_10724)"/>
<path d="M30.5017 7.12732C25.6626 7.12732 25.0553 7.14848 23.1546 7.23497C21.2577 7.32183 19.9629 7.62215 18.83 8.06277C17.658 8.51788 16.6639 9.12667 15.6735 10.1174C14.6824 11.1078 14.0736 12.1019 13.617 13.2735C13.1752 14.4068 12.8745 15.7019 12.7892 17.5981C12.7042 19.4987 12.6819 20.1064 12.6819 24.9455C12.6819 29.7846 12.7034 30.3901 12.7895 32.2907C12.8768 34.1876 13.1771 35.4824 13.6173 36.6153C14.0728 37.7872 14.6816 38.7813 15.6724 39.7717C16.6624 40.7629 17.6566 41.3731 18.8277 41.8282C19.9614 42.2689 21.2566 42.5692 23.1531 42.656C25.0538 42.7425 25.6607 42.7637 30.4995 42.7637C35.3391 42.7637 35.9445 42.7425 37.8451 42.656C39.742 42.5692 41.0383 42.2689 42.172 41.8282C43.3436 41.3731 44.3362 40.7629 45.3262 39.7717C46.3174 38.7813 46.9262 37.7872 47.3828 36.6157C47.8208 35.4824 48.1215 34.1872 48.2106 32.291C48.296 30.3904 48.3182 29.7846 48.3182 24.9455C48.3182 20.1064 48.296 19.4991 48.2106 17.5985C48.1215 15.7016 47.8208 14.4068 47.3828 13.2738C46.9262 12.1019 46.3174 11.1078 45.3262 10.1174C44.3351 9.1263 43.344 8.51751 42.1709 8.06277C41.035 7.62215 39.7394 7.32183 37.8425 7.23497C35.9419 7.14848 35.3368 7.12732 30.4962 7.12732H30.5017ZM28.9033 10.3383C29.3777 10.3376 29.907 10.3383 30.5017 10.3383C35.2592 10.3383 35.8231 10.3554 37.7018 10.4408C39.4391 10.5202 40.382 10.8105 41.0101 11.0544C41.8416 11.3773 42.4345 11.7634 43.0577 12.387C43.6814 13.0107 44.0675 13.6046 44.3912 14.4361C44.635 15.0635 44.9257 16.0063 45.0048 17.7436C45.0902 19.6219 45.1087 20.1862 45.1087 24.9414C45.1087 29.6966 45.0902 30.2609 45.0048 32.1392C44.9253 33.8765 44.635 34.8194 44.3912 35.4467C44.0682 36.2782 43.6814 36.8703 43.0577 37.4936C42.4341 38.1172 41.842 38.5033 41.0101 38.8262C40.3828 39.0712 39.4391 39.3608 37.7018 39.4402C35.8235 39.5256 35.2592 39.5442 30.5017 39.5442C25.7439 39.5442 25.18 39.5256 23.3016 39.4402C21.5643 39.36 20.6215 39.0698 19.993 38.8259C19.1615 38.5029 18.5675 38.1168 17.9439 37.4932C17.3202 36.8696 16.9342 36.2771 16.6105 35.4452C16.3666 34.8179 16.0759 33.875 15.9968 32.1377C15.9115 30.2594 15.8944 29.6952 15.8944 24.937C15.8944 20.1788 15.9115 19.6175 15.9968 17.7392C16.0763 16.0019 16.3666 15.059 16.6105 14.4309C16.9334 13.5994 17.3202 13.0055 17.9439 12.3818C18.5675 11.7582 19.1615 11.3721 19.993 11.0484C20.6211 10.8034 21.5643 10.5139 23.3016 10.4341C24.9454 10.3598 25.5824 10.3376 28.9033 10.3338V10.3383ZM40.013 13.2969C38.8326 13.2969 37.8748 14.2535 37.8748 15.4343C37.8748 16.6148 38.8326 17.5725 40.013 17.5725C41.1935 17.5725 42.1512 16.6148 42.1512 15.4343C42.1512 14.2538 41.1935 13.2961 40.013 13.2961V13.2969ZM30.5017 15.7951C25.4484 15.7951 21.3513 19.8922 21.3513 24.9455C21.3513 29.9988 25.4484 34.094 30.5017 34.094C35.5551 34.094 39.6507 29.9988 39.6507 24.9455C39.6507 19.8922 35.5547 15.7951 30.5014 15.7951H30.5017ZM30.5017 19.0061C33.7818 19.0061 36.4412 21.6651 36.4412 24.9455C36.4412 28.2255 33.7818 30.8849 30.5017 30.8849C27.2213 30.8849 24.5623 28.2255 24.5623 24.9455C24.5623 21.6651 27.2213 19.0061 30.5017 19.0061Z" fill="white"/>
</g>
<defs>
<filter id="filter0_d_1_10724" x="0.777778" y="0" width="59.4444" height="59.4444" filterUnits="userSpaceOnUse" color-interpolation-filters="sRGB">
<feFlood flood-opacity="0" result="BackgroundImageFix"/>
<feColorMatrix in="SourceAlpha" type="matrix" values="0 0 0 0 0 0 0 0 0 0 0 0 0 0 0 0 0 0 127 0" result="hardAlpha"/>
<feOffset dy="5.22222"/>
<feGaussianBlur stdDeviation="2.61111"/>
<feComposite in2="hardAlpha" operator="out"/>
<feColorMatrix type="matrix" values="0 0 0 0 0 0 0 0 0 0 0 0 0 0 0 0 0 0 0.1 0"/>
<feBlend mode="normal" in2="BackgroundImageFix" result="effect1_dropShadow_1_10724"/>
<feBlend mode="normal" in="SourceGraphic" in2="effect1_dropShadow_1_10724" result="shape"/>
</filter>
<radialGradient id="paint0_radial_1_10724" cx="0" cy="0" r="1" gradientUnits="userSpaceOnUse" gradientTransform="translate(19.0157 52.774) rotate(-90) scale(48.5626 45.1671)">
<stop stop-color="#FFDD55"/>
<stop offset="0.1" stop-color="#FFDD55"/>
<stop offset="0.5" stop-color="#FF543E"/>
<stop offset="1" stop-color="#C837AB"/>
</radialGradient>
<radialGradient id="paint1_radial_1_10724" cx="0" cy="0" r="1" gradientUnits="userSpaceOnUse" gradientTransform="translate(-2.20776 3.52988) rotate(78.6806) scale(21.7077 89.48)">
<stop stop-color="#3771C8"/>
<stop offset="0.128" stop-color="#3771C8"/>
<stop offset="1" stop-color="#6600FF" stop-opacity="0"/>
</radialGradient>
</defs>
</svg>
