<svg width="61" height="60" viewBox="0 0 61 60" fill="none" xmlns="http://www.w3.org/2000/svg">
<g filter="url(#filter0_d_1_10732)">
<path d="M46.2357 48.1611C35.7558 49.2796 25.2442 49.2796 14.7643 48.1611C10.5855 47.7151 7.28489 44.4145 6.8389 40.2353C5.72037 29.7554 5.72037 19.2442 6.8389 8.76431C7.28489 4.58553 10.5855 1.28489 14.7643 0.838898C25.2442 -0.279633 35.7554 -0.279633 46.2353 0.838898C50.4145 1.28489 53.7151 4.58553 54.1611 8.76431C55.2796 19.2442 55.2796 29.7554 54.1611 40.2353C53.7151 44.4145 50.4148 47.7151 46.2357 48.1611Z" fill="#0A66C2"/>
<path d="M22.6201 39.8988C22.6201 40.4969 22.1388 40.9818 21.545 40.9818H16.9686C16.3748 40.9818 15.8935 40.4969 15.8935 39.8988V20.5732C15.8935 19.975 16.3748 19.4902 16.9686 19.4902H21.545C22.1388 19.4902 22.6201 19.975 22.6201 20.5732V39.8988ZM19.2568 17.6684C16.8557 17.6684 14.9092 15.7075 14.9092 13.2887C14.9092 10.8699 16.8557 8.90906 19.2568 8.90906C21.6579 8.90906 23.6045 10.8699 23.6045 13.2887C23.6045 15.7075 21.658 17.6684 19.2568 17.6684ZM46.5364 39.986C46.5364 40.5359 46.0938 40.9818 45.5479 40.9818H40.6371C40.0912 40.9818 39.6486 40.5359 39.6486 39.986V30.9212C39.6486 29.5689 40.0424 24.9955 36.1405 24.9955C33.114 24.9955 32.5001 28.1259 32.3768 29.5307V39.986C32.3768 40.5359 31.9343 40.9818 31.3883 40.9818H26.6387C26.0928 40.9818 25.6502 40.5359 25.6502 39.986V20.4859C25.6502 19.936 26.0928 19.4902 26.6387 19.4902H31.3883C31.9342 19.4902 32.3768 19.936 32.3768 20.4859V22.172C33.4991 20.4754 35.1669 19.1659 38.7179 19.1659C46.5815 19.1659 46.5364 26.5665 46.5364 30.6328V39.986Z" fill="white"/>
</g>
<defs>
<filter id="filter0_d_1_10732" x="0.777778" y="0" width="59.4444" height="59.4444" filterUnits="userSpaceOnUse" color-interpolation-filters="sRGB">
<feFlood flood-opacity="0" result="BackgroundImageFix"/>
<feColorMatrix in="SourceAlpha" type="matrix" values="0 0 0 0 0 0 0 0 0 0 0 0 0 0 0 0 0 0 127 0" result="hardAlpha"/>
<feOffset dy="5.22222"/>
<feGaussianBlur stdDeviation="2.61111"/>
<feComposite in2="hardAlpha" operator="out"/>
<feColorMatrix type="matrix" values="0 0 0 0 0 0 0 0 0 0 0 0 0 0 0 0 0 0 0.1 0"/>
<feBlend mode="normal" in2="BackgroundImageFix" result="effect1_dropShadow_1_10732"/>
<feBlend mode="normal" in="SourceGraphic" in2="effect1_dropShadow_1_10732" result="shape"/>
</filter>
</defs>
</svg>
