<svg width="21" height="24" viewBox="0 0 21 24" fill="none" xmlns="http://www.w3.org/2000/svg">
<path d="M10.5 4.96537C9.59971 4.96537 8.71967 5.23233 7.97112 5.73249C7.22258 6.23265 6.63916 6.94355 6.29465 7.77528C5.95013 8.60702 5.85999 9.52224 6.03562 10.4052C6.21126 11.2882 6.64477 12.0992 7.28136 12.7358C7.91794 13.3724 8.729 13.8059 9.61196 13.9815C10.4949 14.1572 11.4101 14.067 12.2419 13.7225C13.0736 13.378 13.7845 12.7946 14.2847 12.046C14.7848 11.2975 15.0518 10.4175 15.0518 9.51719C15.0504 8.31039 14.5704 7.15342 13.7171 6.30008C12.8637 5.44675 11.7068 4.96674 10.5 4.96537ZM10.5 11.5862C10.0908 11.5862 9.69074 11.4649 9.3505 11.2375C9.01025 11.0102 8.74506 10.687 8.58846 10.309C8.43186 9.9309 8.39089 9.51489 8.47072 9.11355C8.55056 8.7122 8.74761 8.34354 9.03697 8.05418C9.32632 7.76482 9.69498 7.56777 10.0963 7.48794C10.4977 7.4081 10.9137 7.44908 11.2918 7.60568C11.6698 7.76227 11.9929 8.02746 12.2203 8.36771C12.4476 8.70796 12.569 9.10798 12.569 9.51719C12.569 10.0659 12.351 10.5922 11.963 10.9802C11.575 11.3682 11.0487 11.5862 10.5 11.5862ZM10.5 -0.000244141C7.97664 0.00249416 5.55743 1.0061 3.77316 2.79037C1.98889 4.57464 0.985282 6.99385 0.982544 9.51719C0.982544 17.5201 9.42823 23.5244 9.78824 23.7758C9.99687 23.9217 10.2453 24 10.5 24C10.7546 24 11.0031 23.9217 11.2117 23.7758C12.8113 22.5969 14.2748 21.2437 15.5752 19.7412C18.4812 16.4039 20.0174 12.8659 20.0174 9.51719C20.0147 6.99385 19.0111 4.57464 17.2268 2.79037C15.4425 1.0061 13.0233 0.00249416 10.5 -0.000244141ZM13.738 18.0736C12.7516 19.2066 11.6682 20.2513 10.5 21.1957C9.33179 20.2513 8.24834 19.2066 7.26198 18.0736C5.53436 16.0728 3.46535 12.9631 3.46535 9.51719C3.46535 7.65149 4.2065 5.86221 5.52575 4.54296C6.84499 3.22371 8.63428 2.48256 10.5 2.48256C12.3657 2.48256 14.155 3.22371 15.4742 4.54296C16.7935 5.86221 17.5346 7.65149 17.5346 9.51719C17.5346 12.9631 15.4656 16.0728 13.738 18.0736Z" fill="currentColor"/>
</svg>
