<svg width="61" height="60" viewBox="0 0 61 60" fill="none" xmlns="http://www.w3.org/2000/svg">
<g filter="url(#filter0_d_1_10839)">
<path d="M46.2357 48.1611C35.7558 49.2796 25.2442 49.2796 14.7643 48.1611C10.5855 47.7151 7.28489 44.4145 6.8389 40.2353C5.72037 29.7554 5.72037 19.2442 6.8389 8.76431C7.28489 4.58553 10.5855 1.28489 14.7643 0.838898C25.2442 -0.279633 35.7554 -0.279633 46.2353 0.838898C50.4145 1.28489 53.7151 4.58553 54.1611 8.76431C55.2796 19.2442 55.2796 29.7554 54.1611 40.2353C53.7151 44.4145 50.4148 47.7151 46.2357 48.1611Z" fill="white"/>
<path d="M34.0101 9.45679C32.907 9.10823 31.7037 8.90906 30.4753 8.90906C26.9406 8.90906 23.7568 10.5025 21.626 13.0171L27.091 17.5732L34.0101 9.45679Z" fill="#1A73E8"/>
<path d="M21.6257 13.0171C19.946 15.0089 18.9182 17.5981 18.9182 20.3866C18.9182 22.5526 19.3444 24.2954 20.0714 25.8639L27.0907 17.5732L21.6257 13.0171Z" fill="#EA4335"/>
<path d="M30.5002 16.0047C32.957 16.0047 34.9374 17.9716 34.9374 20.4115C34.9374 21.482 34.5363 22.4779 33.8845 23.2497C33.8845 23.2497 37.3691 19.1168 40.7785 15.1084C39.3746 12.4195 36.9429 10.378 34.0099 9.45679L27.0908 17.5732C27.9181 16.6271 29.1214 16.0047 30.5002 16.0047Z" fill="#4285F4"/>
<path d="M30.5002 24.7934C28.0435 24.7934 26.063 22.8265 26.063 20.3866C26.063 19.316 26.4391 18.3202 27.0909 17.5732L20.0715 25.8639C21.2748 28.503 23.2804 30.6442 25.336 33.3082L33.8846 23.2249C33.0573 24.1958 31.854 24.7934 30.5002 24.7934Z" fill="#FBBC04"/>
<path d="M33.7338 36.0967C37.5944 30.0965 42.0818 27.3827 42.0818 20.4116C42.0818 18.4945 41.6055 16.7019 40.7782 15.1085L25.3357 33.3082C25.9875 34.1547 26.6644 35.1257 27.3161 36.1216C29.6726 39.7317 29.0208 41.8728 30.525 41.8728C32.0291 41.8728 31.3773 39.7068 33.7338 36.0967Z" fill="#34A853"/>
</g>
<defs>
<filter id="filter0_d_1_10839" x="0.78" y="0" width="59.44" height="59.44" filterUnits="userSpaceOnUse" color-interpolation-filters="sRGB">
<feFlood flood-opacity="0" result="BackgroundImageFix"/>
<feColorMatrix in="SourceAlpha" type="matrix" values="0 0 0 0 0 0 0 0 0 0 0 0 0 0 0 0 0 0 127 0" result="hardAlpha"/>
<feOffset dy="5.22"/>
<feGaussianBlur stdDeviation="2.61"/>
<feComposite in2="hardAlpha" operator="out"/>
<feColorMatrix type="matrix" values="0 0 0 0 0 0 0 0 0 0 0 0 0 0 0 0 0 0 0.1 0"/>
<feBlend mode="normal" in2="BackgroundImageFix" result="effect1_dropShadow_1_10839"/>
<feBlend mode="normal" in="SourceGraphic" in2="effect1_dropShadow_1_10839" result="shape"/>
</filter>
</defs>
</svg>
