<svg width="16" height="16" viewBox="0 0 16 16" fill="none" xmlns="http://www.w3.org/2000/svg">
<path fill-rule="evenodd" clip-rule="evenodd" d="M15.3846 14.309C15.7243 14.309 16 14.5847 16 14.9244C16 15.2641 15.7243 15.5398 15.3846 15.5398H9.4336C9.09391 15.5398 8.81823 15.2641 8.81823 14.9244C8.81823 14.5847 9.09391 14.309 9.4336 14.309H15.3846ZM11.5823 0.536309C11.6233 0.568308 12.996 1.63495 12.996 1.63495C13.4949 1.93197 13.8846 2.46283 14.0323 3.09132C14.1792 3.71326 14.0725 4.35488 13.7304 4.89723C13.7281 4.90085 13.7258 4.90442 13.7179 4.91505L13.7117 4.92327C13.6562 4.99646 13.4147 5.30173 12.1963 6.82833C12.185 6.84834 12.1721 6.86708 12.1581 6.88528C12.1376 6.91212 12.1152 6.93679 12.0913 6.95926C12.0082 7.0639 11.9205 7.17385 11.8282 7.28945L11.6411 7.52368C11.2553 8.00693 10.7976 8.57996 10.2546 9.25964L9.9759 9.60845C8.92758 10.9205 7.58499 12.6005 5.86511 14.7522C5.4885 15.2215 4.924 15.4947 4.31766 15.5021L1.33188 15.5398H1.32368C1.03897 15.5398 0.79118 15.3446 0.72472 15.0664L0.0527366 12.2185C-0.0859267 11.6286 0.0519161 11.0197 0.430163 10.5471L8.15921 0.880096C8.16249 0.876814 8.16495 0.872711 8.16823 0.869429C9.0158 -0.143879 10.5485 -0.293209 11.5823 0.536309ZM7.29746 3.9277L1.39096 11.3159C1.25066 11.4915 1.19897 11.718 1.25066 11.9354L1.80941 14.3025L4.30289 14.2714C4.54001 14.2689 4.75908 14.1631 4.90431 13.9825C5.65218 13.0468 6.59211 11.8708 7.55849 10.6615L7.90039 10.2337L8.24287 9.80506C9.14917 8.67088 10.0445 7.55023 10.7937 6.61224L7.29746 3.9277ZM9.1159 1.65464L8.06627 2.96608L11.5622 5.64986C12.2351 4.80702 12.6778 4.25191 12.7187 4.19899C12.8532 3.98074 12.9058 3.67223 12.8352 3.37521C12.763 3.07081 12.5735 2.81236 12.3002 2.64744C12.242 2.60723 10.8594 1.53403 10.8168 1.50039C10.2966 1.08358 9.53763 1.15578 9.1159 1.65464Z" fill="currentColor"/>
</svg>
