<svg width="61" height="60" viewBox="0 0 61 60" fill="none" xmlns="http://www.w3.org/2000/svg">
<g filter="url(#filter0_d_1_10765)">
<path d="M46.2357 48.1611C35.7558 49.2796 25.2442 49.2796 14.7643 48.1611C10.5855 47.7151 7.28489 44.4145 6.8389 40.2353C5.72037 29.7554 5.72037 19.2442 6.8389 8.76431C7.28489 4.58553 10.5855 1.28489 14.7643 0.838898C25.2442 -0.279633 35.7554 -0.279633 46.2353 0.838898C50.4145 1.28489 53.7151 4.58553 54.1611 8.76431C55.2796 19.2442 55.2796 29.7554 54.1611 40.2353C53.7151 44.4145 50.4148 47.7151 46.2357 48.1611Z" fill="white"/>
<path fill-rule="evenodd" clip-rule="evenodd" d="M26.835 9.66907C27.1135 9.74413 27.3879 9.83227 27.6575 9.93311L27.6605 9.9325C27.9504 10.0413 28.2338 10.1646 28.5097 10.3016C28.5098 10.3015 28.5099 10.3015 28.51 10.3015C28.7234 10.4075 28.9321 10.5216 29.1358 10.6435C29.7714 11.0229 30.3634 11.4812 30.8961 12.0122C32.5822 13.6927 33.5387 15.9647 33.5621 18.3389C33.5684 18.8417 33.5329 19.3445 33.4561 19.8419C33.4143 20.1129 33.3603 20.3827 33.2938 20.6502C32.8793 22.3198 32.0001 23.8377 30.7582 25.0281C29.5163 26.2185 27.9626 27.0327 26.277 27.3762C24.5913 27.7197 22.8429 27.5786 21.2342 26.9691C19.6255 26.3597 18.2224 25.3069 17.1875 23.9327C16.1526 22.5586 15.5283 20.9193 15.3869 19.2048L15.3877 19.2028C15.3656 18.9462 15.3545 18.6879 15.3545 18.4284C15.3545 16.0218 16.3137 13.7139 18.021 12.0122C19.7283 10.3105 22.044 9.35449 24.4585 9.35449C24.8385 9.35449 25.216 9.37816 25.589 9.42469L25.5906 9.42415C26.0122 9.47696 26.4279 9.559 26.835 9.66907Z" fill="url(#paint0_linear_1_10765)"/>
<path fill-rule="evenodd" clip-rule="evenodd" d="M35.7139 40.4238C35.9138 40.4555 36.1151 40.4806 36.3176 40.499L36.3179 40.4989C36.5912 40.5237 36.8666 40.5362 37.1433 40.5362C38.3393 40.5362 39.5235 40.3014 40.6284 39.8453C41.7334 39.3891 42.7373 38.7205 43.583 37.8776C44.4287 37.0348 45.0995 36.0341 45.5572 34.9328C46.0149 33.8316 46.2504 32.6512 46.2504 31.4592C46.2504 31.1641 46.236 30.8696 46.2073 30.5769C46.0519 28.925 45.4478 27.3453 44.4583 26.0097C43.4229 24.612 42.0089 23.5401 40.3835 22.9208C38.758 22.3015 36.9892 22.1607 35.2863 22.515C33.5834 22.8694 32.0175 23.704 30.774 24.9203C29.5305 26.1365 28.6614 27.6834 28.2694 29.3781C28.1123 30.0573 28.0345 30.7489 28.0352 31.4393C28.0352 31.4417 28.0352 31.4441 28.0352 31.4464C28.0353 31.5765 28.0383 31.7067 28.044 31.8367C28.0444 31.8472 28.0449 31.8577 28.0454 31.8682M33.3032 39.6914C33.5882 39.8238 33.8806 39.9417 34.1794 40.0444L34.1834 40.0435C34.68 40.2136 35.192 40.3411 35.7139 40.4238" fill="url(#paint1_linear_1_10765)"/>
<g filter="url(#filter1_d_1_10765)">
<path d="M45.2237 25.013C45.2237 26.9003 44.8508 28.7692 44.1261 30.5128C43.4015 32.2565 42.3393 33.8408 41.0004 35.1753C39.6614 36.5099 38.0718 37.5685 36.3223 38.2907C34.5729 39.013 32.6978 39.3847 30.8043 39.3847C28.9107 39.3847 27.0356 39.013 25.2862 38.2907C23.5367 37.5685 21.9471 36.5099 20.6081 35.1753C19.2692 33.8408 18.207 32.2565 17.4824 30.5128C16.7577 28.7692 16.3848 26.9003 16.3848 25.013C16.3848 23.1257 16.7577 21.2569 17.4824 19.5132C18.207 17.7696 19.2692 16.1853 20.6081 14.8507C21.9471 13.5162 23.5367 12.4576 25.2862 11.7353C27.0356 11.0131 28.9107 10.6414 30.8043 10.6414C32.6978 10.6414 34.5729 11.0131 36.3223 11.7353C38.0718 12.4576 39.6614 13.5162 41.0004 14.8507C42.3393 16.1853 43.4015 17.7696 44.1261 19.5132C44.8508 21.2569 45.2237 23.1257 45.2237 25.013Z" fill="url(#paint2_linear_1_10765)"/>
<path fill-rule="evenodd" clip-rule="evenodd" d="M26.7496 24.5143C26.1669 24.1307 25.6806 23.6178 25.3288 23.0155C24.989 22.3791 24.8214 21.665 24.8423 20.944C24.8166 20.0289 25.1289 19.1363 25.7196 18.4369C26.3334 17.7346 27.1224 17.2074 28.0062 16.909C28.9675 16.5695 29.9802 16.3989 30.9997 16.4049C31.6667 16.3986 32.3329 16.4498 32.9912 16.5577C33.4623 16.6305 33.925 16.7499 34.3725 16.9142C34.7834 17.0533 35.1544 17.2902 35.4535 17.6044C35.6739 17.8629 35.7925 18.1929 35.7871 18.5326C35.795 18.709 35.768 18.8853 35.7077 19.0514C35.6474 19.2174 35.555 19.3699 35.4358 19.5002C35.323 19.6203 35.186 19.7152 35.034 19.7786C34.8819 19.842 34.7181 19.8726 34.5534 19.8682C34.3267 19.8663 34.1031 19.816 33.8975 19.7206C33.3908 19.4938 32.8688 19.3028 32.3353 19.1489C31.8443 19.0195 31.3381 18.9565 30.8303 18.9618C30.1684 18.9375 29.5137 19.105 28.9448 19.4441C28.7048 19.59 28.5083 19.7976 28.3759 20.0454C28.2435 20.2931 28.1801 20.5719 28.1923 20.8525C28.1888 21.2209 28.329 21.5762 28.5831 21.843C28.8851 22.1565 29.2419 22.4119 29.636 22.5966C30.0774 22.8156 30.7357 23.1059 31.6108 23.4676C31.7078 23.4983 31.8023 23.5362 31.8936 23.5809C32.7476 23.9187 33.5664 24.3396 34.3382 24.8375C34.9478 25.235 35.4617 25.7624 35.8433 26.3821C36.2189 27.0333 36.4071 27.7758 36.3869 28.5274C36.4184 29.4476 36.1547 30.3538 35.6343 31.1134C35.1045 31.8326 34.3714 32.3767 33.5296 32.6756C32.515 33.0381 31.4428 33.2128 30.3657 33.1911C28.8854 33.2429 27.4122 32.9642 26.0532 32.3752C25.7058 32.2205 25.4012 31.9836 25.1656 31.685C24.97 31.4114 24.8686 31.0817 24.8766 30.7454C24.8669 30.5681 24.8958 30.3907 24.9613 30.2257C25.0268 30.0606 25.1274 29.9116 25.256 29.7892C25.5257 29.553 25.8759 29.4295 26.2341 29.4441C26.6332 29.4496 27.0252 29.5504 27.3774 29.7383C27.8153 29.9572 28.1608 30.1214 28.4137 30.2309C28.7025 30.3519 29.0017 30.4465 29.3076 30.5136C29.6847 30.5964 30.07 30.6361 30.4561 30.6321C31.1389 30.6809 31.8183 30.4998 32.3862 30.1176C32.5988 29.9513 32.7687 29.7367 32.8819 29.4916C32.995 29.2465 33.0482 28.9779 33.0369 28.7082C33.0375 28.3258 32.8917 27.9576 32.6295 27.6792C32.2828 27.3214 31.8771 27.026 31.43 26.8061C30.9013 26.5276 30.1578 26.188 29.1995 25.7875C28.3424 25.446 27.5217 25.0194 26.7496 24.5143Z" fill="white"/>
</g>
</g>
<defs>
<filter id="filter0_d_1_10765" x="0.777778" y="0" width="59.4444" height="59.4444" filterUnits="userSpaceOnUse" color-interpolation-filters="sRGB">
<feFlood flood-opacity="0" result="BackgroundImageFix"/>
<feColorMatrix in="SourceAlpha" type="matrix" values="0 0 0 0 0 0 0 0 0 0 0 0 0 0 0 0 0 0 127 0" result="hardAlpha"/>
<feOffset dy="5.22222"/>
<feGaussianBlur stdDeviation="2.61111"/>
<feComposite in2="hardAlpha" operator="out"/>
<feColorMatrix type="matrix" values="0 0 0 0 0 0 0 0 0 0 0 0 0 0 0 0 0 0 0.1 0"/>
<feBlend mode="normal" in2="BackgroundImageFix" result="effect1_dropShadow_1_10765"/>
<feBlend mode="normal" in="SourceGraphic" in2="effect1_dropShadow_1_10765" result="shape"/>
</filter>
<filter id="filter1_d_1_10765" x="6.38477" y="0.641357" width="48.8389" height="48.7434" filterUnits="userSpaceOnUse" color-interpolation-filters="sRGB">
<feFlood flood-opacity="0" result="BackgroundImageFix"/>
<feColorMatrix in="SourceAlpha" type="matrix" values="0 0 0 0 0 0 0 0 0 0 0 0 0 0 0 0 0 0 127 0" result="hardAlpha"/>
<feOffset/>
<feGaussianBlur stdDeviation="5"/>
<feComposite in2="hardAlpha" operator="out"/>
<feColorMatrix type="matrix" values="0 0 0 0 0 0 0 0 0 0 0 0 0 0 0 0 0 0 0.1 0"/>
<feBlend mode="normal" in2="BackgroundImageFix" result="effect1_dropShadow_1_10765"/>
<feBlend mode="normal" in="SourceGraphic" in2="effect1_dropShadow_1_10765" result="shape"/>
</filter>
<linearGradient id="paint0_linear_1_10765" x1="27.0947" y1="10.2814" x2="14.814" y2="25.3433" gradientUnits="userSpaceOnUse">
<stop stop-color="#00ABDE"/>
<stop offset="1" stop-color="#007DC3"/>
</linearGradient>
<linearGradient id="paint1_linear_1_10765" x1="44.0877" y1="26.2702" x2="31.266" y2="42.1042" gradientUnits="userSpaceOnUse">
<stop stop-color="#00ABDE"/>
<stop offset="1" stop-color="#0076C2"/>
</linearGradient>
<linearGradient id="paint2_linear_1_10765" x1="25.177" y1="15.2677" x2="39.5632" y2="40.185" gradientUnits="userSpaceOnUse">
<stop stop-color="#00B7F0"/>
<stop offset="1" stop-color="#007CC1"/>
</linearGradient>
</defs>
</svg>
