<svg width="61" height="60" viewBox="0 0 61 60" fill="none" xmlns="http://www.w3.org/2000/svg">
<g filter="url(#filter0_d_1_10739)">
<path d="M46.2357 48.1611C35.7558 49.2796 25.2442 49.2796 14.7643 48.1611C10.5855 47.7151 7.28489 44.4145 6.8389 40.2353C5.72037 29.7554 5.72037 19.2442 6.8389 8.76431C7.28489 4.58553 10.5855 1.28489 14.7643 0.838898C25.2442 -0.279633 35.7554 -0.279633 46.2353 0.838898C50.4145 1.28489 53.7151 4.58553 54.1611 8.76431C55.2796 19.2442 55.2796 29.7554 54.1611 40.2353C53.7151 44.4145 50.4148 47.7151 46.2357 48.1611Z" fill="url(#paint0_linear_1_10739)"/>
<path d="M6.73438 39.2196C6.76802 39.5583 6.80279 39.897 6.83905 40.2357C7.28504 44.4145 10.5857 47.7151 14.7648 48.1611C25.2447 49.2796 35.756 49.2796 46.2358 48.1611C50.415 47.7151 53.7153 44.4145 54.1613 40.2357C54.1975 39.897 54.2323 39.5583 54.2663 39.2196H6.73438Z" fill="url(#paint1_linear_1_10739)"/>
<path d="M30.7 39.3517C30.6185 39.3517 30.5381 39.3494 30.4581 39.3453H30.4577C30.4069 39.3494 30.3534 39.3517 30.2999 39.3517C28.4251 39.3517 27.2221 38.5012 26.0584 37.6784C25.255 37.1109 24.4968 36.5748 23.6037 36.426C23.1678 36.3538 22.7338 36.3172 22.3143 36.3172C21.5592 36.3172 20.9633 36.4338 20.5281 36.5191C20.2638 36.5707 20.0354 36.6152 19.8623 36.6152C19.6814 36.6152 19.4851 36.5759 19.3999 36.2847C19.3255 36.032 19.272 35.7875 19.2204 35.5512C19.0877 34.9422 18.9931 34.568 18.7382 34.5288C15.7647 34.0697 14.9138 33.4431 14.7239 32.999C14.697 32.9355 14.6816 32.8719 14.6783 32.8087C14.6686 32.6379 14.7893 32.4872 14.9583 32.4596C19.5289 31.707 21.5786 27.0355 21.6639 26.837C21.6661 26.8314 21.6687 26.8262 21.671 26.8205C21.951 26.2538 22.0056 25.7615 21.8343 25.3585C21.5207 24.619 20.4979 24.2941 19.8205 24.0792C19.6548 24.0268 19.4978 23.9771 19.3737 23.9285C18.0227 23.3943 17.9101 22.8459 17.9632 22.5662C18.0537 22.09 18.6903 21.758 19.2047 21.758C19.3461 21.758 19.4702 21.783 19.5748 21.832C20.1827 22.1169 20.7304 22.2612 21.2033 22.2612C21.8564 22.2612 22.1413 21.9864 22.1764 21.9505C22.1596 21.641 22.139 21.318 22.1181 20.9845C21.982 18.8237 21.813 16.1384 22.4968 14.6057C24.5458 10.0112 28.8913 9.65455 30.174 9.65455C30.2069 9.65455 30.7366 9.64857 30.7366 9.64857L30.8125 9.64819C32.0985 9.64819 36.4534 10.006 38.5035 14.6027C39.1873 16.1366 39.0183 18.8237 38.8818 20.983L38.8762 21.0769C38.8572 21.3778 38.8388 21.6701 38.8235 21.9498C38.8564 21.9831 39.1185 22.2358 39.7106 22.2582H39.7114C40.1615 22.241 40.6785 22.0974 41.246 21.8316C41.4127 21.7543 41.5974 21.7378 41.723 21.7378C41.9152 21.7378 42.1099 21.7748 42.2714 21.8425L42.2812 21.8462C42.7402 22.0092 43.0412 22.3307 43.0475 22.6672C43.0535 22.9834 42.812 23.4597 41.6262 23.9281C41.5032 23.9764 41.3462 24.0261 41.1798 24.0792C40.502 24.2941 39.4792 24.6186 39.1659 25.3577C38.9944 25.7611 39.0493 26.2527 39.3289 26.8202C39.3316 26.8254 39.3342 26.8306 39.3364 26.8366C39.4216 27.0348 41.4695 31.7051 46.0424 32.4588C46.211 32.4865 46.3317 32.6371 46.3224 32.808C46.3186 32.8723 46.3029 32.9366 46.2756 32.9994C46.0872 33.4405 45.2367 34.0659 42.2621 34.5258C42.0195 34.5628 41.9253 34.8794 41.7802 35.5437C41.7271 35.7852 41.674 36.0226 41.6004 36.2724C41.5372 36.4888 41.4023 36.5901 41.175 36.5901H41.1379C40.9806 36.5901 40.7563 36.5621 40.4725 36.506C39.969 36.4077 39.4041 36.3168 38.6859 36.3168C38.2665 36.3168 37.8325 36.3535 37.3962 36.4256C36.5038 36.5744 35.7461 37.1094 34.9442 37.6765C33.7785 38.5012 32.5751 39.3517 30.7 39.3517Z" fill="white"/>
<path d="M30.813 9.98315C32.0302 9.98353 36.2224 10.3099 38.1982 14.7392C38.8483 16.1971 38.6819 18.8394 38.5481 20.9621C38.5268 21.2986 38.5062 21.6245 38.4898 21.9367L38.4823 22.0705L38.572 22.1703C38.6079 22.2107 38.9462 22.564 39.698 22.5932L39.7107 22.5935L39.7231 22.5932C40.2203 22.5745 40.7803 22.4201 41.3889 22.1348C41.4782 22.093 41.5975 22.0728 41.7235 22.0728C41.8674 22.0728 42.0199 22.0997 42.1459 22.1528L42.165 22.1603C42.4839 22.272 42.7093 22.4829 42.7134 22.6735C42.7149 22.7819 42.6342 23.1696 41.5037 23.6164C41.393 23.6601 41.2476 23.7061 41.079 23.7595C40.3436 23.9932 39.2322 24.3457 38.858 25.2265C38.6471 25.7241 38.7043 26.3099 39.0288 26.9682C39.1627 27.28 41.2622 32.0109 45.9883 32.7897C45.9868 32.8113 45.9815 32.8364 45.9688 32.8652C45.8884 33.054 45.3793 33.7052 42.2117 34.1942C41.7156 34.2708 41.5941 34.826 41.4532 35.472C41.4027 35.703 41.3508 35.9363 41.2794 36.1778C41.258 36.2507 41.2539 36.2552 41.1754 36.2552C41.1646 36.2552 41.1526 36.2552 41.1384 36.2552C40.9979 36.2552 40.7844 36.226 40.5369 36.1774C40.0879 36.0895 39.4722 35.9819 38.6864 35.9819C38.2475 35.9819 37.7952 36.02 37.3421 36.0951C36.3727 36.2566 35.5839 36.8144 34.7487 37.4043C33.6276 38.1973 32.4687 39.0163 30.7004 39.0163C30.6234 39.0163 30.5479 39.0141 30.4724 39.0104L30.4526 39.0092L30.4324 39.0111C30.389 39.0148 30.3453 39.0163 30.3004 39.0163C28.5325 39.0163 27.3729 38.1973 26.2521 37.4047C25.4173 36.8144 24.6281 36.2566 23.6591 36.0951C23.2057 36.02 22.7537 35.9819 22.3148 35.9819C21.529 35.9819 20.9133 36.1019 20.4639 36.1897C20.2168 36.2383 20.003 36.2795 19.8628 36.2795C19.748 36.2795 19.7458 36.2731 19.7215 36.1901C19.6505 35.9486 19.5985 35.7093 19.548 35.4787C19.4071 34.8323 19.2848 34.2738 18.7895 34.1972C15.6216 33.7082 15.1128 33.0551 15.0324 32.8667C15.0197 32.8375 15.0145 32.8121 15.0133 32.79C19.7391 32.0113 21.8385 27.2811 21.972 26.9686C22.2969 26.3095 22.3544 25.7241 22.1436 25.2272C21.7698 24.3457 20.658 23.9932 19.9222 23.7592C19.7536 23.7061 19.6082 23.6601 19.4976 23.616C18.5424 23.2388 18.2489 22.859 18.293 22.6287C18.3435 22.3629 18.8037 22.093 19.2056 22.093C19.2961 22.093 19.3749 22.1075 19.4333 22.1348C20.086 22.4403 20.6819 22.5958 21.2038 22.5958C22.0251 22.5958 22.3911 22.2133 22.43 22.17L22.5189 22.0705L22.5115 21.9371C22.495 21.6257 22.4744 21.2997 22.4531 20.9632C22.3193 18.8406 22.1533 16.2005 22.8034 14.7418C24.7713 10.329 28.943 9.98876 30.1748 9.98876C30.2051 9.98876 30.7404 9.98353 30.7404 9.98353C30.7632 9.98353 30.7872 9.98315 30.813 9.98315ZM30.813 9.31323H30.8115C30.7838 9.31323 30.7576 9.31323 30.7326 9.31361C30.7326 9.31361 30.2148 9.31884 30.1737 9.31884C28.8406 9.31884 24.3227 9.69006 22.1911 14.4692C21.4744 16.0768 21.646 18.8073 21.784 21.0013C21.8 21.2604 21.8176 21.5288 21.8322 21.7883C21.7219 21.8496 21.5204 21.9255 21.2034 21.9255C20.7802 21.9255 20.2804 21.792 19.7174 21.5281C19.5678 21.4582 19.3955 21.423 19.2052 21.423C18.5458 21.423 17.7573 21.8567 17.6343 22.5034C17.5457 22.9689 17.7543 23.6481 19.2508 24.2392C19.3861 24.2926 19.5484 24.3442 19.72 24.3984C20.3383 24.5947 21.2729 24.8912 21.5264 25.4886C21.6576 25.7981 21.6053 26.1966 21.3709 26.6721C21.366 26.683 21.3608 26.6938 21.3559 26.7047C21.2737 26.8961 19.2957 31.4053 14.9042 32.1283C14.5662 32.184 14.3251 32.4853 14.3438 32.827C14.3494 32.9287 14.3737 33.03 14.4152 33.128C14.7445 33.8985 16.1352 34.4633 18.6669 34.8562C18.7514 34.9706 18.8392 35.3748 18.8934 35.6211C18.9461 35.8641 19.0007 36.1146 19.0785 36.3793C19.1547 36.6391 19.3529 36.9497 19.8624 36.9497C20.0684 36.9497 20.3114 36.9023 20.5925 36.8469C21.0142 36.7647 21.5918 36.6518 22.3148 36.6518C22.7156 36.6518 23.1313 36.6866 23.5496 36.7561C24.3664 36.8922 25.0607 37.3827 25.8644 37.9509C27.0155 38.7647 28.3191 39.6863 30.3004 39.6863C30.3546 39.6863 30.4096 39.6844 30.4634 39.6803C30.5281 39.6833 30.6115 39.6863 30.7001 39.6863C32.6822 39.6863 33.9854 38.7647 35.1357 37.9513C35.9413 37.3823 36.6348 36.8918 37.4516 36.7561C37.8696 36.6866 38.2853 36.6518 38.6864 36.6518C39.3761 36.6518 39.9216 36.7397 40.4087 36.8346C40.7137 36.8944 40.959 36.9247 41.1384 36.9247L41.1571 36.9251H41.1754C41.5515 36.9251 41.8173 36.7262 41.9224 36.3651C41.999 36.1064 42.0536 35.8622 42.1074 35.6151C42.1612 35.3695 42.2487 34.9669 42.3332 34.8533C44.8652 34.46 46.2555 33.8962 46.5845 33.1291C46.6268 33.0308 46.6511 32.9287 46.6571 32.8263C46.6761 32.4846 46.4346 32.1837 46.097 32.128C41.7033 31.4038 39.7268 26.8957 39.6446 26.7043C39.6401 26.6934 39.6352 26.6826 39.6296 26.6718C39.3952 26.1962 39.3432 25.7981 39.4745 25.4886C39.7279 24.8912 40.6621 24.5943 41.2805 24.3984C41.4532 24.3435 41.6158 24.2919 41.7496 24.2392C42.845 23.8066 43.3945 23.275 43.383 22.6601C43.3736 22.1767 42.9972 21.7457 42.399 21.5322L42.3971 21.5315C42.196 21.4481 41.9571 21.4025 41.7231 21.4025C41.5635 21.4025 41.3261 21.4242 41.1048 21.5277C40.5836 21.7718 40.1152 21.9045 39.7118 21.9229C39.4442 21.9102 39.2688 21.8429 39.169 21.7879C39.1814 21.5651 39.1959 21.3359 39.2109 21.0963L39.2165 21.0032C39.3552 18.8077 39.5272 16.0749 38.8098 14.4659C36.6774 9.6852 32.1498 9.31323 30.813 9.31323Z" fill="#030303"/>
</g>
<defs>
<filter id="filter0_d_1_10739" x="0.777778" y="0" width="59.4444" height="59.4444" filterUnits="userSpaceOnUse" color-interpolation-filters="sRGB">
<feFlood flood-opacity="0" result="BackgroundImageFix"/>
<feColorMatrix in="SourceAlpha" type="matrix" values="0 0 0 0 0 0 0 0 0 0 0 0 0 0 0 0 0 0 127 0" result="hardAlpha"/>
<feOffset dy="5.22222"/>
<feGaussianBlur stdDeviation="2.61111"/>
<feComposite in2="hardAlpha" operator="out"/>
<feColorMatrix type="matrix" values="0 0 0 0 0 0 0 0 0 0 0 0 0 0 0 0 0 0 0.1 0"/>
<feBlend mode="normal" in2="BackgroundImageFix" result="effect1_dropShadow_1_10739"/>
<feBlend mode="normal" in="SourceGraphic" in2="effect1_dropShadow_1_10739" result="shape"/>
</filter>
<linearGradient id="paint0_linear_1_10739" x1="22.269" y1="6.88931" x2="34.6625" y2="33.4056" gradientUnits="userSpaceOnUse">
<stop stop-color="#FFFC00"/>
<stop offset="1" stop-color="#FFE600"/>
</linearGradient>
<linearGradient id="paint1_linear_1_10739" x1="30.5002" y1="41.859" x2="30.5002" y2="48.2796" gradientUnits="userSpaceOnUse">
<stop stop-color="#FFE600" stop-opacity="0"/>
<stop offset="1" stop-color="#FFCE00"/>
</linearGradient>
</defs>
</svg>
