<svg width="61" height="60" viewBox="0 0 61 60" fill="none" xmlns="http://www.w3.org/2000/svg">
<g filter="url(#filter0_d_1_10812)">
<path d="M46.2357 48.1611C35.7558 49.2796 25.2442 49.2796 14.7643 48.1611C10.5855 47.7151 7.28489 44.4145 6.8389 40.2353C5.72037 29.7554 5.72037 19.2442 6.8389 8.76431C7.28489 4.58553 10.5855 1.28489 14.7643 0.838898C25.2442 -0.279633 35.7554 -0.279633 46.2353 0.838898C50.4145 1.28489 53.7151 4.58553 54.1611 8.76431C55.2796 19.2442 55.2796 29.7554 54.1611 40.2353C53.7151 44.4145 50.4148 47.7151 46.2357 48.1611Z" fill="url(#paint0_linear_1_10812)"/>
<path d="M25.8411 36.5905C24.9591 36.5905 25.1091 36.2575 24.8049 35.4178L22.2117 26.8835L42.1733 15.041" fill="#C8DAEA"/>
<path d="M25.8418 36.5904C26.5223 36.5904 26.8229 36.2792 27.2028 35.9099L30.8322 32.3807L26.305 29.6508" fill="#A9C9DD"/>
<path d="M26.3042 29.6515L37.2741 37.7562C38.526 38.4469 39.4292 38.0892 39.7411 36.5941L44.2064 15.552C44.6635 13.7192 43.5078 12.8876 42.3101 13.4313L16.09 23.5417C14.3002 24.2596 14.3109 25.2582 15.7638 25.703L22.4924 27.8033L38.07 17.9755C38.8054 17.5296 39.4805 17.7691 38.9266 18.2609" fill="url(#paint1_linear_1_10812)"/>
</g>
<defs>
<filter id="filter0_d_1_10812" x="0.777778" y="0" width="59.4444" height="59.4444" filterUnits="userSpaceOnUse" color-interpolation-filters="sRGB">
<feFlood flood-opacity="0" result="BackgroundImageFix"/>
<feColorMatrix in="SourceAlpha" type="matrix" values="0 0 0 0 0 0 0 0 0 0 0 0 0 0 0 0 0 0 127 0" result="hardAlpha"/>
<feOffset dy="5.22222"/>
<feGaussianBlur stdDeviation="2.61111"/>
<feComposite in2="hardAlpha" operator="out"/>
<feColorMatrix type="matrix" values="0 0 0 0 0 0 0 0 0 0 0 0 0 0 0 0 0 0 0.1 0"/>
<feBlend mode="normal" in2="BackgroundImageFix" result="effect1_dropShadow_1_10812"/>
<feBlend mode="normal" in="SourceGraphic" in2="effect1_dropShadow_1_10812" result="shape"/>
</filter>
<linearGradient id="paint0_linear_1_10812" x1="38.683" y1="8.183" x2="26.433" y2="36.75" gradientUnits="userSpaceOnUse">
<stop stop-color="#37AEE2"/>
<stop offset="1" stop-color="#1E96C8"/>
</linearGradient>
<linearGradient id="paint1_linear_1_10812" x1="34.2444" y1="24.1166" x2="38.4925" y2="33.7955" gradientUnits="userSpaceOnUse">
<stop stop-color="#EFF7FC"/>
<stop offset="1" stop-color="white"/>
</linearGradient>
</defs>
</svg>
