<svg width="16" height="19" viewBox="0 0 16 19" fill="none" xmlns="http://www.w3.org/2000/svg">
<path fill-rule="evenodd" clip-rule="evenodd" d="M1.70056 5.75185H14.401C14.5031 5.74771 14.6052 5.75603 14.7053 5.77662C14.8707 5.81366 15.0226 5.89734 15.1435 6.01809C15.2839 6.15514 15.3722 6.33822 15.393 6.53507C15.3968 6.6095 15.3938 6.68412 15.3838 6.75796L14.3021 18.158V18.1781V18.2214C14.295 18.2685 14.2848 18.315 14.2717 18.3607V18.37C14.2143 18.5499 14.1034 18.7071 13.9543 18.82C13.8052 18.9328 13.6253 18.9958 13.4395 19H2.6362C2.57199 18.9968 2.50826 18.987 2.44603 18.9706C2.38487 18.952 2.32574 18.9271 2.26955 18.8963C2.13693 18.8187 2.02494 18.7093 1.94328 18.5777C1.86162 18.446 1.81277 18.2961 1.80097 18.1409L0.736001 6.7657C0.723848 6.68064 0.720788 6.59449 0.726872 6.50876C0.748156 6.31464 0.835953 6.13434 0.974857 5.99951C1.10072 5.87504 1.25919 5.79013 1.43127 5.75495C1.52115 5.73897 1.61239 5.73222 1.7036 5.73483L1.70056 5.75185ZM0.860754 1.36212H5.64853V0.928717C5.64778 0.914797 5.64778 0.900845 5.64853 0.886925C5.65812 0.653635 5.75372 0.432578 5.9163 0.26778C6.08694 0.0963966 6.31702 0.000207606 6.5568 0L9.50371 0H9.54935C9.78345 0.0119235 10.0041 0.115009 10.1655 0.287902C10.3269 0.460795 10.4168 0.690244 10.4165 0.928717V1.36212H15.285H15.3443C15.5166 1.37646 15.678 1.45382 15.7985 1.57989C15.9191 1.70595 15.9906 1.87219 16 2.04782C16 2.07568 16 2.09735 16 2.12521V3.65141C16 3.75773 15.9585 3.8597 15.8846 3.93488C15.8107 4.01006 15.7105 4.0523 15.606 4.0523H0.395212C0.291492 4.05231 0.191953 4.01071 0.118187 3.93653C0.0444201 3.86235 0.0023758 3.76157 0.00117442 3.65605V2.09426C-0.000391472 2.0783 -0.000391472 2.06223 0.00117442 2.04627C0.0115976 1.88328 0.075405 1.72854 0.182406 1.60677C0.289407 1.485 0.433429 1.40322 0.59147 1.3745C0.680721 1.36259 0.77081 1.35844 0.860754 1.36212ZM7.26576 9.51935C7.28413 9.33756 7.3681 9.16916 7.50145 9.04672C7.6348 8.92428 7.80803 8.85651 7.98766 8.85651C8.16728 8.85651 8.34051 8.92428 8.47386 9.04672C8.60721 9.16916 8.69118 9.33756 8.70955 9.51935V15.2464C8.69118 15.4282 8.60721 15.5966 8.47386 15.7191C8.34051 15.8415 8.16728 15.9093 7.98766 15.9093C7.80803 15.9093 7.6348 15.8415 7.50145 15.7191C7.3681 15.5966 7.28413 15.4282 7.26576 15.2464V9.51935ZM10.876 9.48839C10.8959 9.30285 10.987 9.13281 11.1294 9.01515C11.2718 8.8975 11.4541 8.84174 11.6367 8.85996C11.7264 8.85914 11.8153 8.87638 11.8984 8.91069C11.9816 8.945 12.0572 8.9957 12.121 9.05986C12.1847 9.12403 12.2354 9.2004 12.27 9.28457C12.3047 9.36874 12.3226 9.45905 12.3228 9.55031L12.0185 15.2774C11.999 15.4631 11.908 15.6334 11.7655 15.7511C11.623 15.8688 11.4405 15.9245 11.2579 15.9058C11.1682 15.9066 11.0792 15.8894 10.9961 15.8551C10.913 15.8208 10.8374 15.7701 10.7736 15.7059C10.7098 15.6418 10.6591 15.5654 10.6245 15.4812C10.5899 15.397 10.5719 15.3067 10.5717 15.2155L10.876 9.48839ZM3.80462 9.55031C3.80462 9.45912 3.82237 9.36885 3.85685 9.28468C3.89133 9.20052 3.94185 9.12414 4.00551 9.05996C4.06916 8.99577 4.14468 8.94505 4.22771 8.91072C4.31074 8.87639 4.39963 8.85914 4.48924 8.85996C4.67182 8.84174 4.85409 8.8975 4.9965 9.01515C5.13892 9.13281 5.22998 9.30285 5.24993 9.48839L5.55421 15.2155C5.55401 15.3067 5.53607 15.397 5.50143 15.4812C5.46678 15.5654 5.41611 15.6418 5.35234 15.7059C5.28856 15.7701 5.21294 15.8208 5.12983 15.8551C5.04672 15.8894 4.95776 15.9066 4.86807 15.9058C4.68541 15.9245 4.50292 15.8688 4.36042 15.7511C4.21791 15.6334 4.12695 15.4631 4.10738 15.2774L3.8031 9.55031H3.80462Z" fill="#222222"/>
</svg>
