<svg width="61" height="60" viewBox="0 0 61 60" fill="none" xmlns="http://www.w3.org/2000/svg">
<g filter="url(#filter0_d_1_10889)">
<path d="M46.2357 48.1611C35.7558 49.2796 25.2442 49.2796 14.7643 48.1611C10.5855 47.7151 7.28489 44.4145 6.8389 40.2353C5.72037 29.7554 5.72037 19.2442 6.8389 8.76431C7.28489 4.58553 10.5855 1.28489 14.7643 0.838898C25.2442 -0.279633 35.7554 -0.279633 46.2353 0.838898C50.4145 1.28489 53.7151 4.58553 54.1611 8.76431C55.2796 19.2442 55.2796 29.7554 54.1611 40.2353C53.7151 44.4145 50.4148 47.7151 46.2357 48.1611Z" fill="white"/>
<g filter="url(#filter1_d_1_10889)">
<path d="M30.6136 39.2272C38.6845 39.2272 45.2272 32.6845 45.2272 24.6136C45.2272 16.5427 38.6845 10 30.6136 10C22.5427 10 16 16.5427 16 24.6136C16 32.6845 22.5427 39.2272 30.6136 39.2272Z" fill="url(#paint0_linear_1_10889)"/>
</g>
<path d="M30.6133 38.1312C38.0788 38.1312 44.1308 32.0792 44.1308 24.6136C44.1308 17.1481 38.0788 11.0961 30.6133 11.0961C23.1477 11.0961 17.0957 17.1481 17.0957 24.6136C17.0957 32.0792 23.1477 38.1312 30.6133 38.1312Z" fill="url(#paint1_radial_1_10889)"/>
<path d="M30.6366 14.3841C30.5453 14.3841 30.4653 14.3156 30.4653 14.2242V11.8381C30.4653 11.7468 30.5453 11.6783 30.6366 11.6783C30.7279 11.6783 30.8078 11.7468 30.8078 11.8381V14.2242C30.7964 14.3156 30.7279 14.3841 30.6366 14.3841Z" fill="#F3F3F3"/>
<path d="M30.636 14.3955C30.5333 14.3955 30.4534 14.3156 30.4534 14.2242V11.8381C30.4534 11.7468 30.5333 11.6669 30.636 11.6669C30.7388 11.6669 30.8187 11.7468 30.8187 11.8381V14.2242C30.8187 14.3156 30.7274 14.3955 30.636 14.3955ZM30.636 11.6897C30.5561 11.6897 30.4762 11.7582 30.4762 11.8381V14.2242C30.4762 14.3042 30.5447 14.3727 30.636 14.3727C30.716 14.3727 30.7959 14.3042 30.7959 14.2242V11.8381C30.7845 11.7582 30.716 11.6897 30.636 11.6897Z" fill="white"/>
<path d="M31.7782 13.1053C31.6869 13.0939 31.6184 13.0254 31.6184 12.9341L31.6983 11.8723C31.7097 11.781 31.7897 11.7125 31.881 11.7239C31.9723 11.7353 32.0408 11.8038 32.0408 11.8952L31.9609 12.9569C31.9495 13.0483 31.8696 13.1168 31.7782 13.1053Z" fill="#F3F3F3"/>
<path d="M31.7779 13.1169C31.6752 13.1055 31.6067 13.0256 31.6067 12.9342L31.6866 11.8725C31.698 11.7811 31.7779 11.7012 31.8807 11.7126C31.9834 11.7241 32.0519 11.804 32.0519 11.8953L31.972 12.9571C31.9606 13.0598 31.8807 13.1283 31.7779 13.1169ZM31.8807 11.7355C31.8008 11.7355 31.7209 11.7926 31.7209 11.8725L31.6409 12.9342C31.6409 13.0142 31.698 13.0827 31.7894 13.0941C31.8693 13.0941 31.9492 13.037 31.9492 12.9571L32.0291 11.8953C32.0291 11.8154 31.9606 11.7469 31.8807 11.7355Z" fill="white"/>
<path d="M32.6348 14.5897C32.5435 14.5669 32.4864 14.487 32.4978 14.3956L32.9659 12.0552C32.9887 11.9638 33.0686 11.9068 33.16 11.9296C33.2513 11.9524 33.3084 12.0323 33.297 12.1237L32.8289 14.4641C32.8175 14.5441 32.7261 14.6011 32.6348 14.5897Z" fill="#F3F3F3"/>
<path d="M32.6345 14.6011C32.5317 14.5783 32.4746 14.487 32.4861 14.3956L32.9542 12.0552C32.977 11.9639 33.0683 11.8953 33.1711 11.9182C33.2738 11.941 33.3309 12.0324 33.3195 12.1237L32.8514 14.4641C32.8286 14.5555 32.7372 14.6126 32.6345 14.6011ZM33.1711 11.941C33.0912 11.9296 33.0112 11.9753 32.9884 12.0552L32.5203 14.3956C32.5089 14.4756 32.5546 14.5555 32.6459 14.5783C32.7258 14.5897 32.8057 14.5441 32.8286 14.4641L33.2967 12.1237C33.3081 12.0324 33.251 11.9639 33.1711 11.941Z" fill="white"/>
<path d="M34.0049 13.5622C33.9136 13.5394 33.8565 13.4481 33.8793 13.3567L34.1647 12.3292C34.1876 12.2379 34.2789 12.1922 34.3702 12.215C34.4616 12.2379 34.5186 12.3292 34.4958 12.4206L34.2104 13.4481C34.1876 13.5394 34.0962 13.5851 34.0049 13.5622Z" fill="#F3F3F3"/>
<path d="M34.0049 13.5734C33.9136 13.5506 33.8451 13.4478 33.8793 13.3565L34.1648 12.329C34.1876 12.2376 34.2903 12.1806 34.3817 12.2034C34.473 12.2262 34.5415 12.329 34.5073 12.4203L34.2218 13.4478C34.199 13.5392 34.1077 13.5963 34.0049 13.5734ZM34.3817 12.2376C34.3018 12.2148 34.2104 12.2605 34.1876 12.3404L33.9022 13.3679C33.8793 13.4478 33.925 13.5278 34.0163 13.5506C34.0963 13.5734 34.1876 13.5278 34.2104 13.4478L34.4958 12.4203C34.5073 12.3404 34.4616 12.2605 34.3817 12.2376Z" fill="white"/>
<path d="M34.5636 15.1719C34.4723 15.1376 34.438 15.0349 34.4723 14.955L35.3856 12.7515C35.4199 12.6716 35.5226 12.6259 35.6025 12.6716C35.6939 12.7058 35.7281 12.8086 35.6939 12.8885L34.7805 15.092C34.7463 15.1719 34.6435 15.2175 34.5636 15.1719Z" fill="#F3F3F3"/>
<path d="M34.5636 15.1833C34.4723 15.149 34.4266 15.0462 34.4608 14.9549L35.3742 12.7515C35.4084 12.6601 35.5112 12.6259 35.6139 12.6601C35.7053 12.6944 35.7509 12.7971 35.7167 12.8885L34.8033 15.0919C34.7577 15.1833 34.6549 15.2289 34.5636 15.1833ZM35.6025 12.683C35.5226 12.6487 35.4313 12.683 35.397 12.7629L34.4837 14.9663C34.4494 15.0462 34.4951 15.1262 34.575 15.1604C34.6549 15.1947 34.7463 15.1604 34.7805 15.0805L35.6939 12.877C35.7167 12.8085 35.6824 12.7172 35.6025 12.683Z" fill="white"/>
<path d="M36.1054 14.441C36.0254 14.3954 35.9912 14.304 36.0254 14.2241L36.5049 13.2765C36.5506 13.1966 36.6419 13.1623 36.7333 13.208C36.8132 13.2537 36.8474 13.345 36.8132 13.4249L36.3337 14.3725C36.288 14.4525 36.1967 14.4867 36.1054 14.441Z" fill="#F3F3F3"/>
<path d="M36.1052 14.4525C36.0139 14.4068 35.9796 14.304 36.0253 14.2127L36.5048 13.2651C36.5504 13.1738 36.6532 13.1395 36.7445 13.1852C36.8359 13.2308 36.8701 13.3336 36.8244 13.4249L36.3449 14.3725C36.2993 14.4639 36.1965 14.4981 36.1052 14.4525ZM36.7331 13.208C36.6532 13.1738 36.5619 13.1966 36.5276 13.2765L36.0481 14.2241C36.0139 14.2926 36.0481 14.3839 36.1166 14.4296C36.1965 14.4639 36.2879 14.441 36.3221 14.3611L36.8016 13.4135C36.8359 13.345 36.8016 13.2537 36.7331 13.208Z" fill="white"/>
<path d="M36.3335 16.1308C36.2536 16.0737 36.2307 15.9709 36.2878 15.9024L37.6122 13.9273C37.6578 13.8474 37.7606 13.836 37.8405 13.8816C37.9204 13.9387 37.9433 14.0415 37.8862 14.11L36.5618 16.0851C36.5161 16.165 36.4134 16.1878 36.3335 16.1308Z" fill="#F3F3F3"/>
<path d="M36.3335 16.1422C36.2536 16.0851 36.2308 15.9709 36.2764 15.891L37.6008 13.9159C37.6579 13.836 37.7606 13.8131 37.852 13.8702C37.9319 13.9273 37.9547 14.0415 37.9091 14.1214L36.5847 16.0965C36.5276 16.1764 36.4135 16.1993 36.3335 16.1422ZM37.8406 13.893C37.7721 13.8474 37.6693 13.8588 37.6236 13.9273L36.2993 15.9024C36.2536 15.9709 36.2764 16.0622 36.345 16.1079C36.4135 16.1536 36.5162 16.1422 36.5619 16.0737L37.8862 14.11C37.9319 14.0415 37.9091 13.9387 37.8406 13.893Z" fill="white"/>
<path d="M38.0004 15.7084C37.9319 15.6513 37.9091 15.5485 37.9662 15.48L38.6284 14.6466C38.6855 14.5781 38.7882 14.5667 38.8567 14.6238C38.9252 14.6809 38.948 14.7836 38.891 14.8521L38.2288 15.6855C38.1717 15.754 38.0689 15.7655 38.0004 15.7084Z" fill="#F3F3F3"/>
<path d="M37.9889 15.7199C37.909 15.6628 37.8975 15.5486 37.9546 15.4687L38.6168 14.6353C38.6739 14.5553 38.7881 14.5439 38.868 14.6124C38.9479 14.6695 38.9593 14.7837 38.9022 14.8636L38.24 15.697C38.183 15.7769 38.0688 15.7884 37.9889 15.7199ZM38.8451 14.6353C38.7766 14.5782 38.6853 14.5896 38.6282 14.6581L37.966 15.4915C37.9204 15.56 37.9318 15.6514 38.0003 15.7084C38.0688 15.7655 38.1601 15.7541 38.2172 15.6856L38.8794 14.8522C38.9251 14.7837 38.9136 14.6809 38.8451 14.6353Z" fill="white"/>
<path d="M37.8866 17.421C37.8181 17.3525 37.8181 17.2497 37.8866 17.1926L39.5763 15.5144C39.6448 15.4459 39.7475 15.4573 39.8046 15.5144C39.8617 15.5714 39.8731 15.6856 39.8046 15.7427L38.1263 17.421C38.0578 17.4895 37.9551 17.4895 37.8866 17.421Z" fill="#F3F3F3"/>
<path d="M37.8749 17.4324C37.8064 17.3639 37.8064 17.2497 37.8749 17.1812L39.5646 15.5029C39.6331 15.4344 39.7472 15.4344 39.8157 15.5029C39.8842 15.5714 39.8842 15.6856 39.8157 15.7541L38.126 17.4324C38.0575 17.5009 37.9434 17.5009 37.8749 17.4324ZM39.8043 15.5143C39.7472 15.4572 39.6445 15.4572 39.5874 15.5143L37.8977 17.1926C37.8406 17.2497 37.8406 17.3524 37.8977 17.4095C37.9548 17.4666 38.0575 17.4666 38.1146 17.4095L39.8043 15.7313C39.8614 15.6742 39.8614 15.5828 39.8043 15.5143Z" fill="white"/>
<path d="M39.5984 17.3295C39.5413 17.261 39.5413 17.1583 39.6098 17.1012L40.4204 16.4162C40.4889 16.3591 40.5916 16.3705 40.6487 16.439C40.7058 16.5075 40.7058 16.6103 40.6373 16.6674L39.8267 17.3524C39.7582 17.4095 39.6555 17.398 39.5984 17.3295Z" fill="#F3F3F3"/>
<path d="M39.5873 17.3411C39.5188 17.2612 39.5302 17.147 39.5987 17.0899L40.4093 16.4049C40.4778 16.3364 40.592 16.3478 40.6605 16.4277C40.729 16.5077 40.7176 16.6218 40.649 16.6789L39.8385 17.3639C39.77 17.4324 39.6558 17.421 39.5873 17.3411ZM40.6376 16.4392C40.5805 16.3707 40.4892 16.3707 40.4207 16.4163L39.6101 17.1013C39.553 17.1584 39.5416 17.2498 39.5987 17.3183C39.6558 17.3868 39.7471 17.3868 39.8156 17.3411L40.6262 16.6561C40.6947 16.599 40.6947 16.5077 40.6376 16.4392Z" fill="white"/>
<path d="M39.1421 18.9736C39.085 18.8937 39.1078 18.7909 39.1877 18.7453L41.1743 17.4209C41.2542 17.3752 41.3569 17.3981 41.4026 17.4666C41.4597 17.5465 41.4369 17.6493 41.3569 17.6949L39.3704 19.0193C39.3019 19.0649 39.1991 19.0421 39.1421 18.9736Z" fill="#F3F3F3"/>
<path d="M39.1306 18.9738C39.0735 18.8939 39.0963 18.7798 39.1763 18.7227L41.1628 17.3983C41.2427 17.3412 41.3569 17.3641 41.414 17.4554C41.471 17.5353 41.4482 17.6495 41.3683 17.7066L39.3818 19.0309C39.3018 19.088 39.1877 19.0652 39.1306 18.9738ZM41.3911 17.4782C41.3455 17.4097 41.2541 17.3869 41.1856 17.4326L39.1991 18.7569C39.1306 18.8026 39.1078 18.8939 39.1648 18.9738C39.2105 19.0423 39.3018 19.0652 39.3703 19.0195L41.3569 17.6951C41.4254 17.6381 41.4368 17.5467 41.3911 17.4782Z" fill="white"/>
<path d="M40.8429 19.2133C40.7972 19.1334 40.82 19.0306 40.8999 18.985L41.8247 18.4598C41.9046 18.4141 42.0074 18.4484 42.053 18.5283C42.0987 18.6082 42.0759 18.711 41.996 18.7566L41.0712 19.2818C40.9913 19.3275 40.8885 19.2932 40.8429 19.2133Z" fill="#F3F3F3"/>
<path d="M40.8321 19.2247C40.7864 19.1334 40.8093 19.0306 40.8892 18.985L41.814 18.4598C41.8939 18.4141 42.0081 18.4484 42.0537 18.5283C42.0994 18.6196 42.0766 18.7224 41.9966 18.768L41.0719 19.2932C40.9919 19.3389 40.8778 19.3046 40.8321 19.2247ZM42.0423 18.5397C41.9966 18.4598 41.9053 18.437 41.8368 18.4826L40.912 19.0078C40.8435 19.0535 40.8207 19.1448 40.8549 19.2133C40.9006 19.2932 40.9919 19.3161 41.0605 19.2704L41.9852 18.7452C42.0537 18.711 42.0766 18.6196 42.0423 18.5397Z" fill="white"/>
<path d="M40.0787 20.732C40.0445 20.6407 40.0787 20.5493 40.17 20.5151L42.3735 19.6017C42.4534 19.5675 42.5562 19.6131 42.5904 19.6931C42.6247 19.7844 42.5904 19.8757 42.4991 19.91L40.2956 20.8233C40.2157 20.8576 40.113 20.8233 40.0787 20.732Z" fill="#F3F3F3"/>
<path d="M40.067 20.7434C40.0327 20.6521 40.067 20.5493 40.1583 20.5036L42.3618 19.5903C42.4531 19.556 42.5559 19.6017 42.5901 19.693C42.6244 19.7844 42.5901 19.8871 42.4988 19.9328L40.2953 20.8461C40.204 20.8804 40.1012 20.8347 40.067 20.7434ZM42.5673 19.7045C42.533 19.6245 42.4417 19.5903 42.3732 19.6131L40.1697 20.5265C40.0898 20.5607 40.0556 20.6521 40.0898 20.732C40.1241 20.8119 40.2154 20.8461 40.2839 20.8233L42.4874 19.91C42.5673 19.8757 42.6015 19.7844 42.5673 19.7045Z" fill="white"/>
<path d="M41.6884 21.3025C41.6541 21.2112 41.6998 21.1199 41.7911 21.0856L42.7958 20.7545C42.8757 20.7203 42.9785 20.7774 43.0013 20.8573C43.0356 20.9486 42.9899 21.0399 42.8986 21.0742L41.8939 21.4053C41.814 21.4395 41.7226 21.3939 41.6884 21.3025Z" fill="#F3F3F3"/>
<path d="M41.6765 21.3141C41.6423 21.2228 41.6879 21.12 41.7907 21.0858L42.7954 20.7547C42.8867 20.7204 42.9895 20.7775 43.0237 20.8688C43.058 20.9602 43.0123 21.0629 42.9096 21.0972L41.9049 21.4283C41.8135 21.4511 41.7108 21.4054 41.6765 21.3141ZM43.0009 20.8803C42.9781 20.8003 42.8867 20.7547 42.8068 20.7775L41.8021 21.1086C41.7222 21.1314 41.6879 21.2228 41.7108 21.3027C41.7336 21.3826 41.8249 21.4283 41.9049 21.4054L42.9096 21.0743C42.9895 21.0401 43.0237 20.9602 43.0009 20.8803Z" fill="white"/>
<path d="M40.6606 22.6612C40.6377 22.5699 40.6948 22.4786 40.7861 22.4671L43.1266 22.0105C43.2179 21.9876 43.2978 22.0561 43.3207 22.1475C43.3435 22.2388 43.2864 22.3301 43.1951 22.3416L40.8546 22.7982C40.7633 22.8097 40.672 22.7526 40.6606 22.6612Z" fill="#F3F3F3"/>
<path d="M40.6375 22.6613C40.6146 22.5585 40.6832 22.4672 40.7745 22.4444L43.1149 21.9877C43.2063 21.9648 43.2976 22.0333 43.3204 22.1361C43.3433 22.2388 43.2748 22.3302 43.1834 22.353L40.843 22.8097C40.7517 22.8325 40.6603 22.764 40.6375 22.6613ZM43.2976 22.1475C43.2862 22.0676 43.2063 22.0105 43.1264 22.0219L40.7859 22.4786C40.706 22.49 40.6489 22.5814 40.6717 22.6613C40.6832 22.7412 40.7631 22.7983 40.843 22.7869L43.1834 22.3302C43.2634 22.3073 43.3204 22.2274 43.2976 22.1475Z" fill="white"/>
<path d="M42.1218 23.5403C42.1104 23.449 42.1675 23.3691 42.2588 23.3577L43.3092 23.2321C43.4005 23.2207 43.4804 23.2892 43.4918 23.3805C43.5032 23.4718 43.4462 23.5518 43.3548 23.5632L42.3045 23.6888C42.2246 23.7002 42.1332 23.6317 42.1218 23.5403Z" fill="#F3F3F3"/>
<path d="M42.1109 23.5403C42.0994 23.4376 42.1679 23.3463 42.2593 23.3348L43.3096 23.2092C43.401 23.1978 43.4923 23.2663 43.5037 23.3691C43.5151 23.4718 43.4466 23.5632 43.3553 23.5746L42.3049 23.7002C42.2136 23.7116 42.1223 23.6431 42.1109 23.5403ZM43.4923 23.3805C43.4809 23.3006 43.401 23.2321 43.321 23.2435L42.2707 23.3691C42.1908 23.3805 42.1337 23.4604 42.1451 23.5403C42.1565 23.6203 42.2364 23.6888 42.3164 23.6773L43.3667 23.5518C43.4466 23.5403 43.5037 23.4604 43.4923 23.3805Z" fill="white"/>
<path d="M40.8433 24.6478C40.8433 24.5565 40.9118 24.4766 41.0031 24.4766H43.3892C43.4806 24.4766 43.5491 24.5565 43.5491 24.6478C43.5491 24.7392 43.4806 24.8191 43.3892 24.8191H41.0031C40.9118 24.8191 40.8433 24.7392 40.8433 24.6478Z" fill="#F3F3F3"/>
<path d="M40.8313 24.6479C40.8313 24.5451 40.9112 24.4652 41.0026 24.4652H43.3887C43.48 24.4652 43.5599 24.5451 43.5599 24.6479C43.5599 24.7506 43.48 24.8305 43.3887 24.8305H41.0026C40.9112 24.8305 40.8313 24.7506 40.8313 24.6479ZM43.5371 24.6593C43.5371 24.5794 43.4686 24.4995 43.3887 24.4995H41.0026C40.9226 24.4995 40.8541 24.568 40.8541 24.6593C40.8541 24.7392 40.9226 24.8191 41.0026 24.8191H43.3887C43.4686 24.8077 43.5371 24.7392 43.5371 24.6593Z" fill="white"/>
<path d="M42.1106 25.8009C42.122 25.7096 42.1905 25.6411 42.2818 25.6411L43.3436 25.721C43.435 25.7324 43.5035 25.8124 43.492 25.9037C43.4806 25.995 43.4121 26.0635 43.3208 26.0635L42.259 25.9836C42.1791 25.9722 42.1106 25.8923 42.1106 25.8009Z" fill="#F3F3F3"/>
<path d="M42.0991 25.801C42.1105 25.6982 42.1905 25.6297 42.2818 25.6297L43.3436 25.7096C43.4349 25.721 43.5148 25.801 43.5034 25.9037C43.492 26.0065 43.4121 26.075 43.3207 26.075L42.259 25.995C42.1676 25.9836 42.0991 25.8923 42.0991 25.801ZM43.492 25.9037C43.5034 25.8238 43.4349 25.7439 43.355 25.7439L42.2932 25.664C42.2133 25.664 42.1448 25.721 42.1334 25.8124C42.122 25.8923 42.1905 25.9722 42.2704 25.9722L43.3321 26.0521C43.4121 26.0521 43.4806 25.9836 43.492 25.9037Z" fill="white"/>
<path d="M40.6374 26.6344C40.6603 26.5431 40.7402 26.486 40.8315 26.4974L43.172 26.9655C43.2633 26.9883 43.3204 27.0683 43.2976 27.1596C43.2747 27.2509 43.1948 27.308 43.1035 27.2966L40.763 26.8285C40.6831 26.8171 40.626 26.7258 40.6374 26.6344Z" fill="#F3F3F3"/>
<path d="M40.6267 26.6342C40.6495 26.5315 40.7409 26.4744 40.8322 26.4858L43.1727 26.9539C43.264 26.9767 43.3325 27.0681 43.3097 27.1708C43.2868 27.2736 43.1955 27.3307 43.1042 27.3193L40.7637 26.8512C40.6724 26.8283 40.6153 26.737 40.6267 26.6342ZM43.2868 27.1708C43.2982 27.0909 43.2526 27.011 43.1727 26.9882L40.8322 26.5201C40.7523 26.5087 40.6724 26.5543 40.6495 26.6457C40.6381 26.7256 40.6838 26.8055 40.7637 26.8283L43.1042 27.2964C43.1955 27.3078 43.264 27.2507 43.2868 27.1708Z" fill="white"/>
<path d="M41.6652 28.0043C41.6881 27.913 41.7794 27.8559 41.8707 27.8788L42.8983 28.1642C42.9896 28.187 43.0353 28.2783 43.0124 28.3697C42.9896 28.461 42.8983 28.5181 42.8069 28.4953L41.7794 28.2098C41.6881 28.187 41.6424 28.0957 41.6652 28.0043Z" fill="#F3F3F3"/>
<path d="M41.6537 28.0046C41.6766 27.9132 41.7793 27.8447 41.8706 27.879L42.8982 28.1644C42.9895 28.1872 43.0466 28.29 43.0237 28.3813C43.0009 28.4726 42.8982 28.5411 42.8068 28.5069L41.7793 28.2215C41.688 28.1986 41.6309 28.1073 41.6537 28.0046ZM42.9895 28.3813C43.0123 28.3014 42.9667 28.2101 42.8867 28.1872L41.8592 27.9018C41.7793 27.879 41.6994 27.9246 41.6765 28.016C41.6537 28.0959 41.6994 28.1872 41.7793 28.2101L42.8068 28.4955C42.8867 28.5069 42.9667 28.4612 42.9895 28.3813Z" fill="white"/>
<path d="M40.0555 28.5525C40.0898 28.4612 40.1925 28.427 40.2724 28.4612L42.4759 29.3746C42.5558 29.4088 42.6015 29.5116 42.5672 29.5915C42.533 29.6828 42.4302 29.7171 42.3503 29.6828L40.1468 28.7695C40.0555 28.7352 40.0213 28.6325 40.0555 28.5525Z" fill="#F3F3F3"/>
<path d="M40.0435 28.5411C40.0778 28.4498 40.1805 28.4041 40.2719 28.4384L42.4753 29.3517C42.5667 29.386 42.6009 29.4887 42.5667 29.5915C42.5324 29.6828 42.4297 29.7285 42.3383 29.6942L40.1349 28.7809C40.0435 28.7352 40.0093 28.6325 40.0435 28.5411ZM42.5438 29.5801C42.5781 29.5001 42.5438 29.4088 42.4639 29.3746L40.2605 28.4612C40.1805 28.427 40.1006 28.4726 40.0664 28.5525C40.0321 28.6325 40.0664 28.7238 40.1463 28.758L42.3497 29.6714C42.4297 29.6942 42.521 29.66 42.5438 29.5801Z" fill="white"/>
<path d="M40.7971 30.0938C40.8427 30.0138 40.9341 29.9796 41.014 30.0138L41.9616 30.4933C42.0415 30.5276 42.0758 30.6303 42.0301 30.7217C41.9844 30.8016 41.8931 30.8358 41.8132 30.8016L40.8656 30.3221C40.7856 30.2764 40.7514 30.1737 40.7971 30.0938Z" fill="#F3F3F3"/>
<path d="M40.7863 30.0822C40.8319 29.9908 40.9347 29.9566 41.026 30.0023L41.9736 30.4818C42.0649 30.5274 42.0992 30.6302 42.0535 30.7215C42.0079 30.8129 41.9051 30.8471 41.8138 30.8014L40.8662 30.3219C40.7748 30.2877 40.7406 30.1735 40.7863 30.0822ZM42.0193 30.7101C42.0535 30.6302 42.0307 30.5388 41.9508 30.5046L41.0032 30.0251C40.9347 29.9908 40.8433 30.0251 40.7977 30.0936C40.7634 30.1735 40.7863 30.2648 40.8662 30.2991L41.8138 30.7786C41.8937 30.8129 41.985 30.79 42.0193 30.7101Z" fill="white"/>
<path d="M39.1189 30.3105C39.176 30.2306 39.2673 30.2078 39.3472 30.2649L41.3337 31.5892C41.4137 31.6349 41.4251 31.7376 41.3794 31.8176C41.3223 31.8975 41.231 31.9203 41.1511 31.8632L39.1645 30.5389C39.0846 30.4818 39.0618 30.379 39.1189 30.3105Z" fill="#F3F3F3"/>
<path d="M39.1074 30.299C39.1645 30.2191 39.2787 30.1962 39.3586 30.2419L41.3451 31.5663C41.425 31.6233 41.4479 31.7261 41.3908 31.8174C41.3337 31.8974 41.2195 31.9202 41.1396 31.8745L39.1531 30.5502C39.0617 30.4931 39.0503 30.3789 39.1074 30.299ZM41.3565 31.806C41.4022 31.7375 41.3908 31.6348 41.3223 31.5891L39.3357 30.2647C39.2672 30.2191 39.1759 30.2419 39.1302 30.3104C39.0846 30.3789 39.096 30.4817 39.1645 30.5273L41.151 31.8517C41.2195 31.8974 41.3109 31.8745 41.3565 31.806Z" fill="white"/>
<path d="M39.5417 31.9661C39.5988 31.8976 39.7015 31.8747 39.77 31.9318L40.6034 32.5826C40.6719 32.6397 40.6834 32.7424 40.6263 32.8109C40.5692 32.8794 40.4664 32.9023 40.3979 32.8452L39.5645 32.1944C39.496 32.1373 39.4846 32.0346 39.5417 31.9661Z" fill="#F3F3F3"/>
<path d="M39.5301 31.9546C39.5871 31.8747 39.7013 31.8632 39.7812 31.9203L40.6147 32.5711C40.6946 32.6282 40.706 32.7423 40.6489 32.8223C40.5918 32.9022 40.4777 32.9136 40.3977 32.8565L39.5643 32.2057C39.4844 32.1487 39.473 32.0345 39.5301 31.9546ZM40.6261 32.8108C40.6832 32.7423 40.6717 32.651 40.6032 32.5939L39.7698 31.9432C39.7013 31.8975 39.61 31.9089 39.5529 31.9774C39.4958 32.0459 39.5072 32.1372 39.5757 32.1943L40.4092 32.8451C40.4777 32.8908 40.569 32.8793 40.6261 32.8108Z" fill="white"/>
<path d="M37.8409 31.8519C37.9094 31.7834 38.0122 31.7834 38.0692 31.8519L39.7589 33.5302C39.8274 33.5987 39.816 33.7014 39.7589 33.7585C39.6904 33.827 39.5877 33.827 39.5306 33.7585L37.8409 32.0803C37.7838 32.0232 37.7838 31.909 37.8409 31.8519Z" fill="#F3F3F3"/>
<path d="M37.8405 31.8406C37.909 31.7721 38.0231 31.7721 38.0916 31.8406L39.7813 33.5189C39.8498 33.5874 39.8498 33.7016 39.7813 33.7701C39.7128 33.8386 39.5987 33.8386 39.5302 33.7701L37.8405 32.0918C37.7605 32.0233 37.7605 31.9091 37.8405 31.8406ZM39.7585 33.7472C39.8156 33.6902 39.8156 33.5874 39.7585 33.5303L38.0688 31.852C38.0117 31.795 37.909 31.795 37.8519 31.852C37.7948 31.9091 37.7948 32.0119 37.8519 32.069L39.5416 33.7472C39.5987 33.8157 39.69 33.8157 39.7585 33.7472Z" fill="white"/>
<path d="M37.9434 33.553C38.0119 33.4959 38.1147 33.4959 38.1718 33.5644L38.8682 34.3636C38.9253 34.4321 38.9138 34.5349 38.8453 34.592C38.7768 34.649 38.6741 34.649 38.617 34.5805L37.9206 33.7814C37.8635 33.7243 37.8749 33.6215 37.9434 33.553Z" fill="#F3F3F3"/>
<path d="M37.9316 33.5531C38.0115 33.4846 38.1142 33.496 38.1827 33.5645L38.8792 34.3637C38.9477 34.4322 38.9362 34.5464 38.8563 34.6149C38.7764 34.6834 38.6737 34.672 38.6052 34.6035L37.9087 33.8043C37.8516 33.7244 37.8516 33.6102 37.9316 33.5531ZM38.8449 34.592C38.9134 34.535 38.9134 34.4436 38.8677 34.3751L38.1713 33.5759C38.1142 33.5189 38.0229 33.5074 37.9544 33.5645C37.8859 33.6216 37.8859 33.7129 37.9316 33.7814L38.628 34.5806C38.6851 34.6491 38.7764 34.6491 38.8449 34.592Z" fill="white"/>
<path d="M36.2992 33.1191C36.3791 33.062 36.4818 33.0848 36.5275 33.1647L37.8519 35.1398C37.8975 35.2198 37.8747 35.3225 37.8062 35.3682C37.7263 35.4253 37.6235 35.4024 37.5779 35.3225L36.2535 33.3474C36.2078 33.2675 36.2307 33.1647 36.2992 33.1191Z" fill="#F3F3F3"/>
<path d="M36.2994 33.1076C36.3793 33.0506 36.4935 33.0734 36.5506 33.1533L37.8749 35.1284C37.932 35.2083 37.9092 35.3225 37.8178 35.3796C37.7379 35.4367 37.6237 35.4138 37.5667 35.3339L36.2423 33.3588C36.1852 33.2675 36.2081 33.1647 36.2994 33.1076ZM37.8064 35.3568C37.8749 35.3111 37.8977 35.2198 37.8521 35.1513L36.5277 33.1761C36.4821 33.1076 36.3907 33.0962 36.3108 33.1419C36.2423 33.1876 36.2195 33.2789 36.2651 33.3474L37.5895 35.3225C37.6352 35.3796 37.7379 35.4024 37.8064 35.3568Z" fill="white"/>
<path d="M36.0597 34.8087C36.1397 34.763 36.2424 34.7858 36.2881 34.8658L36.8133 35.7905C36.8589 35.8704 36.8247 35.9732 36.7448 36.0189C36.6648 36.0645 36.5621 36.0417 36.5164 35.9618L35.9912 35.037C35.957 34.9571 35.9798 34.8543 36.0597 34.8087Z" fill="#F3F3F3"/>
<path d="M36.0596 34.7975C36.1509 34.7518 36.2537 34.7747 36.2994 34.8546L36.8245 35.7794C36.8702 35.8593 36.8474 35.9734 36.756 36.0191C36.6647 36.0648 36.5619 36.0419 36.5163 35.962L35.9911 35.0373C35.9454 34.9573 35.9683 34.8546 36.0596 34.7975ZM36.7446 36.0077C36.8131 35.962 36.8474 35.8707 36.8017 35.8022L36.2765 34.8774C36.2308 34.8089 36.1395 34.7861 36.071 34.8203C36.0025 34.866 35.9683 34.9573 36.0139 35.0258L36.5391 35.9506C36.5734 36.0191 36.6761 36.0534 36.7446 36.0077Z" fill="white"/>
<path d="M34.5406 34.0553C34.6319 34.0211 34.7233 34.0553 34.7575 34.1353L35.6823 36.3387C35.7165 36.4186 35.6709 36.5214 35.5909 36.5556C35.511 36.5899 35.4083 36.5556 35.374 36.4757L34.4492 34.2723C34.415 34.1923 34.4607 34.0896 34.5406 34.0553Z" fill="#F3F3F3"/>
<path d="M34.5411 34.0439C34.6325 34.0096 34.7352 34.0439 34.7809 34.1352L35.7056 36.3386C35.7399 36.43 35.6942 36.5327 35.6029 36.567C35.5116 36.6012 35.4088 36.567 35.3631 36.4756L34.4384 34.2722C34.4041 34.1923 34.4498 34.0895 34.5411 34.0439ZM35.5801 36.5441C35.66 36.5099 35.6942 36.4186 35.66 36.3501L34.7352 34.1466C34.701 34.0667 34.6096 34.0324 34.5297 34.0667C34.4498 34.1009 34.4155 34.1923 34.4498 34.2608L35.3746 36.4642C35.4202 36.5441 35.5001 36.5784 35.5801 36.5441Z" fill="white"/>
<path d="M33.9818 35.6765C34.0731 35.6422 34.1645 35.6879 34.1987 35.7792L34.5298 36.7839C34.5641 36.8638 34.507 36.9666 34.4271 36.9894C34.3357 37.0237 34.2444 36.978 34.2101 36.8867L33.879 35.882C33.8448 35.8021 33.8905 35.7107 33.9818 35.6765Z" fill="#F3F3F3"/>
<path d="M33.9698 35.6651C34.0612 35.6308 34.1639 35.6765 34.1982 35.7678L34.5293 36.7725C34.5635 36.8638 34.5064 36.9666 34.4151 37.0008C34.3238 37.0351 34.221 36.9894 34.1868 36.8981L33.8557 35.8934C33.8328 35.8021 33.8785 35.6993 33.9698 35.6651ZM34.4151 36.978C34.495 36.9552 34.5407 36.8638 34.5179 36.7839L34.1868 35.7792C34.1639 35.6993 34.0726 35.6651 33.9927 35.6879C33.9128 35.7107 33.8671 35.8021 33.8899 35.882L34.221 36.8867C34.2438 36.9666 34.3352 37.0123 34.4151 36.978Z" fill="white"/>
<path d="M32.6348 34.6375C32.7261 34.6146 32.8175 34.6717 32.8289 34.7631L33.3084 37.1035C33.3312 37.1949 33.2627 37.2748 33.1714 37.2976C33.08 37.3204 32.9887 37.2634 32.9773 37.172L32.4978 34.8316C32.4864 34.7517 32.5435 34.6603 32.6348 34.6375Z" fill="#F3F3F3"/>
<path d="M32.6344 34.6261C32.7372 34.6033 32.8285 34.6718 32.8514 34.7631L33.3309 37.1036C33.3537 37.1949 33.2852 37.2977 33.1939 37.3091C33.0911 37.3319 32.9998 37.2634 32.9769 37.1721L32.4974 34.8316C32.4746 34.7403 32.5317 34.649 32.6344 34.6261ZM33.171 37.2863C33.2509 37.2748 33.308 37.1949 33.2966 37.1036L32.8171 34.7631C32.8057 34.6832 32.7144 34.6261 32.6344 34.649C32.5545 34.6604 32.4974 34.7403 32.5088 34.8316L32.9884 37.1721C33.0112 37.252 33.0911 37.2977 33.171 37.2863Z" fill="white"/>
<path d="M31.7671 36.1218C31.8584 36.1104 31.9383 36.1675 31.9612 36.2588L32.0982 37.3092C32.1096 37.4005 32.0411 37.4804 31.9498 37.4918C31.8584 37.5033 31.7785 37.4462 31.7557 37.3548L31.6187 36.3045C31.6073 36.2131 31.6758 36.1332 31.7671 36.1218Z" fill="#F3F3F3"/>
<path d="M31.7668 36.1105C31.8695 36.0991 31.9609 36.1676 31.9723 36.2589L32.1093 37.3093C32.1207 37.4006 32.0522 37.4919 31.9495 37.5034C31.8467 37.5148 31.7554 37.4463 31.744 37.3549L31.607 36.3046C31.5955 36.2132 31.664 36.1219 31.7668 36.1105ZM31.938 37.4805C32.018 37.4691 32.0865 37.3892 32.075 37.3093L31.938 36.2589C31.9266 36.179 31.8467 36.1219 31.7668 36.1333C31.6869 36.1447 31.6184 36.2247 31.6298 36.3046L31.7668 37.3549C31.7782 37.4349 31.8581 37.4919 31.938 37.4805Z" fill="white"/>
<path d="M30.5904 34.8431C30.6818 34.8431 30.7617 34.9116 30.7617 35.003V37.3891C30.7617 37.4804 30.6818 37.5489 30.5904 37.5489C30.4991 37.5489 30.4192 37.4804 30.4192 37.3891V35.003C30.4306 34.9116 30.4991 34.8431 30.5904 34.8431Z" fill="#F3F3F3"/>
<path d="M30.5911 34.8317C30.6939 34.8317 30.7738 34.9116 30.7738 35.0029V37.389C30.7738 37.4804 30.6939 37.5603 30.5911 37.5603C30.4884 37.5603 30.4084 37.4804 30.4084 37.389V35.0029C30.4084 34.9116 30.4998 34.8317 30.5911 34.8317ZM30.5911 37.5375C30.671 37.5375 30.751 37.469 30.751 37.389V35.0029C30.751 34.923 30.6825 34.8545 30.5911 34.8545C30.5112 34.8545 30.4313 34.923 30.4313 35.0029V37.389C30.4427 37.469 30.5112 37.5375 30.5911 37.5375Z" fill="white"/>
<path d="M29.4491 36.1217C29.5404 36.1331 29.6089 36.2016 29.6089 36.293L29.529 37.3547C29.5176 37.4461 29.4377 37.5146 29.3464 37.5032C29.255 37.4917 29.1865 37.4232 29.1865 37.3319L29.2664 36.2701C29.2779 36.1788 29.3578 36.1103 29.4491 36.1217Z" fill="#F3F3F3"/>
<path d="M29.4491 36.1104C29.5518 36.1218 29.6203 36.2017 29.6203 36.293L29.5404 37.3548C29.529 37.4461 29.4491 37.5261 29.3463 37.5146C29.2435 37.5032 29.175 37.4233 29.175 37.332L29.255 36.2702C29.2664 36.1675 29.3463 36.099 29.4491 36.1104ZM29.3463 37.4918C29.4262 37.4918 29.5061 37.4347 29.5061 37.3548L29.5861 36.293C29.5861 36.2131 29.529 36.1446 29.4376 36.1332C29.3577 36.1332 29.2778 36.1903 29.2778 36.2702L29.1979 37.332C29.1979 37.4119 29.2664 37.4804 29.3463 37.4918Z" fill="white"/>
<path d="M28.5926 34.6376C28.6839 34.6604 28.741 34.7403 28.7296 34.8317L28.2615 37.1721C28.2387 37.2634 28.1587 37.3205 28.0674 37.2977C27.9761 37.2749 27.919 37.1949 27.9304 37.1036L28.3985 34.7631C28.4099 34.6832 28.5012 34.6261 28.5926 34.6376Z" fill="#F3F3F3"/>
<path d="M28.5929 34.6261C28.6957 34.649 28.7528 34.7403 28.7414 34.8316L28.2733 37.1721C28.2504 37.2634 28.1591 37.3319 28.0564 37.3091C27.9536 37.2863 27.8965 37.1949 27.9079 37.1036L28.376 34.7631C28.3989 34.6718 28.4902 34.6147 28.5929 34.6261ZM28.0564 37.2863C28.1363 37.2977 28.2162 37.252 28.239 37.1721L28.7071 34.8316C28.7185 34.7517 28.6729 34.6718 28.5815 34.649C28.5016 34.6376 28.4217 34.6832 28.3989 34.7631L27.9308 37.1036C27.9194 37.1949 27.9764 37.2634 28.0564 37.2863Z" fill="white"/>
<path d="M27.2228 35.6651C27.3141 35.6879 27.3712 35.7792 27.3483 35.8706L27.0629 36.8981C27.0401 36.9894 26.9488 37.0351 26.8574 37.0122C26.7661 36.9894 26.709 36.8981 26.7318 36.8067L27.0173 35.7792C27.0401 35.6879 27.1314 35.6422 27.2228 35.6651Z" fill="#F3F3F3"/>
<path d="M27.2225 35.6538C27.3138 35.6767 27.3823 35.7794 27.3481 35.8708L27.0627 36.8983C27.0398 36.9896 26.9371 37.0467 26.8457 37.0239C26.7544 37.001 26.6859 36.8983 26.7202 36.8069L27.0056 35.7794C27.0284 35.6881 27.1197 35.631 27.2225 35.6538ZM26.8457 36.9896C26.9257 37.0124 27.017 36.9668 27.0398 36.8869L27.3252 35.8593C27.3481 35.7794 27.3024 35.6995 27.2111 35.6767C27.1312 35.6538 27.0398 35.6995 27.017 35.7794L26.7316 36.8069C26.7202 36.8869 26.7658 36.9668 26.8457 36.9896Z" fill="white"/>
<path d="M26.6633 34.0552C26.7546 34.0894 26.7888 34.1922 26.7546 34.2721L25.8412 36.4756C25.807 36.5555 25.7042 36.6012 25.6243 36.5555C25.5444 36.5098 25.4987 36.4185 25.533 36.3386L26.4463 34.1351C26.4806 34.0552 26.5833 34.0095 26.6633 34.0552Z" fill="#F3F3F3"/>
<path d="M26.6637 34.0439C26.7551 34.0782 26.8007 34.1809 26.7665 34.2723L25.8531 36.4757C25.8189 36.567 25.7161 36.6013 25.6134 36.567C25.5221 36.5328 25.4764 36.43 25.5106 36.3387L26.424 34.1353C26.4697 34.0439 26.5724 33.9982 26.6637 34.0439ZM25.6248 36.5442C25.7047 36.5785 25.7961 36.5442 25.8303 36.4643L26.7437 34.2608C26.7779 34.1809 26.7322 34.101 26.6523 34.0667C26.5724 34.0325 26.4811 34.0668 26.4468 34.1467L25.5335 36.3501C25.5106 36.4186 25.5449 36.51 25.6248 36.5442Z" fill="white"/>
<path d="M25.1217 34.786C25.2016 34.8316 25.2359 34.923 25.2016 35.0029L24.7221 35.9505C24.6764 36.0304 24.5851 36.0646 24.4938 36.019C24.4139 35.9733 24.3796 35.882 24.4139 35.8021L24.8934 34.8545C24.939 34.7745 25.0304 34.7403 25.1217 34.786Z" fill="#F3F3F3"/>
<path d="M25.1222 34.7747C25.2135 34.8203 25.2478 34.9231 25.2021 35.0144L24.7226 35.962C24.677 36.0533 24.5742 36.0876 24.4829 36.0419C24.3915 35.9963 24.3573 35.8935 24.403 35.8022L24.8825 34.8546C24.9281 34.7632 25.0309 34.729 25.1222 34.7747ZM24.4943 36.0191C24.5742 36.0533 24.6655 36.0305 24.6998 35.9506L25.1793 35.003C25.2135 34.9345 25.1793 34.8432 25.1108 34.7975C25.0309 34.7632 24.9395 34.7861 24.9053 34.866L24.4258 35.8136C24.3915 35.8821 24.4258 35.9734 24.4943 36.0191Z" fill="white"/>
<path d="M24.8942 33.0964C24.9741 33.1535 24.997 33.2562 24.9399 33.3247L23.6155 35.2999C23.5699 35.3798 23.4671 35.3912 23.3872 35.3455C23.3073 35.2884 23.2844 35.1857 23.3415 35.1172L24.6659 33.1421C24.7115 33.0622 24.8143 33.0393 24.8942 33.0964Z" fill="#F3F3F3"/>
<path d="M24.894 33.0848C24.9739 33.1419 24.9967 33.2561 24.9511 33.336L23.6267 35.3111C23.5696 35.391 23.4669 35.4139 23.3755 35.3568C23.2956 35.2997 23.2728 35.1855 23.3184 35.1056L24.6428 33.1305C24.6999 33.0506 24.8141 33.0277 24.894 33.0848ZM23.3869 35.3339C23.4554 35.3796 23.5582 35.3682 23.6039 35.2997L24.9282 33.3246C24.9739 33.2561 24.9511 33.1647 24.8826 33.1191C24.8141 33.0734 24.7113 33.0848 24.6656 33.1533L23.3413 35.117C23.2956 35.1855 23.3184 35.2883 23.3869 35.3339Z" fill="white"/>
<path d="M23.2271 33.5187C23.2956 33.5758 23.3184 33.6785 23.2613 33.747L22.5991 34.5804C22.5421 34.6489 22.4393 34.6604 22.3708 34.6033C22.3023 34.5462 22.2795 34.4434 22.3366 34.3749L22.9987 33.5415C23.0558 33.473 23.1586 33.4616 23.2271 33.5187Z" fill="#F3F3F3"/>
<path d="M23.2383 33.5074C23.3183 33.5645 23.3297 33.6786 23.2726 33.7586L22.6104 34.592C22.5533 34.6719 22.4392 34.6833 22.3592 34.6148C22.2793 34.5577 22.2679 34.4436 22.325 34.3636L22.9872 33.5302C23.0442 33.4503 23.1584 33.4389 23.2383 33.5074ZM22.3821 34.592C22.4506 34.6491 22.5419 34.6376 22.599 34.5691L23.2612 33.7357C23.3068 33.6672 23.2954 33.5759 23.2269 33.5188C23.1584 33.4617 23.0671 33.4731 23.01 33.5416L22.3478 34.3751C22.3022 34.4436 22.3136 34.5463 22.3821 34.592Z" fill="white"/>
<path d="M23.3414 31.8063C23.4099 31.8748 23.4099 31.9775 23.3414 32.0346L21.6517 33.7129C21.5832 33.7814 21.4805 33.77 21.4234 33.7129C21.3663 33.6558 21.3549 33.5416 21.4234 33.4845L23.1017 31.8063C23.1702 31.7378 23.2729 31.7378 23.3414 31.8063Z" fill="#F3F3F3"/>
<path d="M23.3528 31.7948C23.4213 31.8633 23.4213 31.9775 23.3528 32.046L21.6631 33.7242C21.5946 33.7927 21.4805 33.7927 21.412 33.7242C21.3435 33.6557 21.3435 33.5416 21.412 33.4731L23.1017 31.7948C23.1702 31.7263 23.2843 31.7263 23.3528 31.7948ZM21.4234 33.7128C21.4805 33.7699 21.5832 33.7699 21.6403 33.7128L23.33 32.0345C23.3871 31.9775 23.3871 31.8747 23.33 31.8176C23.2729 31.7605 23.1702 31.7605 23.1131 31.8176L21.4234 33.4959C21.3663 33.553 21.3663 33.6443 21.4234 33.7128Z" fill="white"/>
<path d="M21.6282 31.8976C21.6853 31.9661 21.6853 32.0689 21.6168 32.126L20.8062 32.811C20.7377 32.8681 20.6349 32.8567 20.5779 32.7882C20.5208 32.7197 20.5208 32.6169 20.5893 32.5598L21.3999 31.8748C21.4684 31.8177 21.5711 31.8291 21.6282 31.8976Z" fill="#F3F3F3"/>
<path d="M21.64 31.8862C21.7085 31.9661 21.697 32.0803 21.6285 32.1373L20.8179 32.8224C20.7494 32.8909 20.6353 32.8794 20.5668 32.7995C20.4983 32.7196 20.5097 32.6054 20.5782 32.5484L21.3888 31.8633C21.4573 31.7948 21.5715 31.8063 21.64 31.8862ZM20.5896 32.7881C20.6467 32.8566 20.738 32.8566 20.8065 32.8109L21.6171 32.1259C21.6742 32.0688 21.6856 31.9775 21.6285 31.909C21.5715 31.8405 21.4801 31.8405 21.4116 31.8862L20.601 32.5712C20.5325 32.6283 20.5325 32.7196 20.5896 32.7881Z" fill="white"/>
<path d="M22.0855 30.2535C22.1425 30.3334 22.1197 30.4362 22.0398 30.4818L20.0533 31.8062C19.9733 31.8519 19.8706 31.829 19.8249 31.7605C19.7678 31.6806 19.7907 31.5779 19.8706 31.5322L21.8571 30.2078C21.9256 30.1622 22.0284 30.185 22.0855 30.2535Z" fill="#F3F3F3"/>
<path d="M22.0966 30.2535C22.1537 30.3334 22.1308 30.4476 22.0509 30.5047L20.0644 31.829C19.9845 31.8861 19.8703 31.8633 19.8132 31.7719C19.7561 31.692 19.779 31.5778 19.8589 31.5208L21.8454 30.1964C21.9253 30.1393 22.0395 30.1622 22.0966 30.2535ZM19.836 31.7491C19.8817 31.8176 19.973 31.8404 20.0415 31.7948L22.0281 30.4704C22.0966 30.4247 22.1194 30.3334 22.0623 30.2535C22.0167 30.185 21.9253 30.1622 21.8568 30.2078L19.8703 31.5322C19.8018 31.5893 19.7904 31.6806 19.836 31.7491Z" fill="white"/>
<path d="M20.3841 30.0139C20.4298 30.0938 20.4069 30.1966 20.327 30.2422L19.4022 30.7674C19.3223 30.8131 19.2196 30.7788 19.1739 30.6989C19.1282 30.619 19.1511 30.5162 19.231 30.4706L20.1558 29.9454C20.2357 29.8997 20.3384 29.934 20.3841 30.0139Z" fill="#F3F3F3"/>
<path d="M20.3955 30.0023C20.4412 30.0936 20.4183 30.1964 20.3384 30.242L19.4137 30.7672C19.3337 30.8129 19.2196 30.7786 19.1739 30.6987C19.1282 30.6074 19.1511 30.5046 19.231 30.459L20.1558 29.9338C20.2357 29.8881 20.3498 29.9224 20.3955 30.0023ZM19.1853 30.6873C19.231 30.7672 19.3223 30.79 19.3908 30.7444L20.3156 30.2192C20.3841 30.1735 20.4069 30.0822 20.3727 30.0137C20.327 29.9338 20.2357 29.9109 20.1672 29.9566L19.2424 30.4818C19.1739 30.516 19.1511 30.6074 19.1853 30.6873Z" fill="white"/>
<path d="M21.149 28.4955C21.1833 28.5868 21.149 28.6781 21.0577 28.7124L18.8542 29.6257C18.7743 29.66 18.6715 29.6143 18.6373 29.5344C18.603 29.4431 18.6373 29.3517 18.7286 29.3175L20.9321 28.4041C21.012 28.3699 21.1148 28.4041 21.149 28.4955Z" fill="#F3F3F3"/>
<path d="M21.1604 28.4841C21.1947 28.5754 21.1604 28.6781 21.0691 28.7238L18.8656 29.6372C18.7743 29.6714 18.6715 29.6257 18.6373 29.5344C18.603 29.4431 18.6373 29.3403 18.7286 29.2947L20.9321 28.3813C21.0234 28.3471 21.1262 28.3927 21.1604 28.4841ZM18.6601 29.523C18.6944 29.6029 18.7857 29.6372 18.8542 29.6143L21.0577 28.701C21.1376 28.6667 21.1718 28.5754 21.1376 28.4955C21.1033 28.4156 21.012 28.3813 20.9435 28.4041L18.74 29.3175C18.6601 29.3517 18.6259 29.4431 18.6601 29.523Z" fill="white"/>
<path d="M19.5394 27.9244C19.5736 28.0158 19.528 28.1071 19.4366 28.1413L18.432 28.4724C18.352 28.5067 18.2493 28.4496 18.2265 28.3697C18.1922 28.2783 18.2379 28.187 18.3292 28.1528L19.3339 27.8217C19.4138 27.7874 19.5051 27.8331 19.5394 27.9244Z" fill="#F3F3F3"/>
<path d="M19.5511 27.9132C19.5853 28.0045 19.5396 28.1073 19.4369 28.1415L18.4322 28.4726C18.3409 28.5069 18.2381 28.4498 18.2039 28.3585C18.1696 28.2671 18.2153 28.1644 18.318 28.1301L19.3227 27.799C19.4141 27.7762 19.5168 27.8219 19.5511 27.9132ZM18.2267 28.347C18.2495 28.427 18.3409 28.4726 18.4208 28.4498L19.4255 28.1187C19.5054 28.0959 19.5396 28.0045 19.5168 27.9246C19.494 27.8447 19.4026 27.799 19.3227 27.8219L18.318 28.153C18.2381 28.1872 18.2039 28.2671 18.2267 28.347Z" fill="white"/>
<path d="M20.5668 26.5661C20.5896 26.6574 20.5325 26.7487 20.4412 26.7601L18.1007 27.2168C18.0094 27.2397 17.9295 27.1712 17.9066 27.0798C17.8838 26.9885 17.9409 26.8972 18.0322 26.8857L20.3727 26.4291C20.464 26.4176 20.5554 26.4747 20.5668 26.5661Z" fill="#F3F3F3"/>
<path d="M20.59 26.5658C20.6128 26.6685 20.5443 26.7599 20.453 26.7827L18.1125 27.2394C18.0212 27.2622 17.9298 27.1937 17.907 27.091C17.8842 26.9882 17.9527 26.8969 18.044 26.874L20.3845 26.4174C20.4758 26.3945 20.5671 26.463 20.59 26.5658ZM17.9298 27.0795C17.9413 27.1595 18.0212 27.2165 18.1011 27.2051L20.4416 26.7485C20.5215 26.737 20.5786 26.6457 20.5557 26.5658C20.5443 26.4859 20.4644 26.4288 20.3845 26.4402L18.044 26.8969C17.9641 26.9197 17.907 26.9996 17.9298 27.0795Z" fill="white"/>
<path d="M19.1051 25.6866C19.1165 25.778 19.0594 25.8579 18.9681 25.8693L17.9178 25.9949C17.8264 26.0063 17.7465 25.9378 17.7351 25.8465C17.7237 25.7552 17.7808 25.6752 17.8721 25.6638L18.9224 25.5382C19.0024 25.5268 19.0937 25.5953 19.1051 25.6866Z" fill="#F3F3F3"/>
<path d="M19.117 25.687C19.1284 25.7897 19.0599 25.881 18.9686 25.8925L17.9182 26.018C17.8269 26.0295 17.7356 25.961 17.7241 25.8582C17.7127 25.7555 17.7812 25.6641 17.8726 25.6527L18.9229 25.5271C19.0143 25.5157 19.1056 25.5842 19.117 25.687ZM17.7356 25.8468C17.747 25.9267 17.8269 25.9952 17.9068 25.9838L18.9572 25.8582C19.0371 25.8468 19.0942 25.7669 19.0828 25.687C19.0713 25.607 18.9914 25.5385 18.9115 25.55L17.8611 25.6755C17.7812 25.687 17.7241 25.7669 17.7356 25.8468Z" fill="white"/>
<path d="M20.3838 24.5793C20.3838 24.6707 20.3153 24.7506 20.2239 24.7506H17.8378C17.7465 24.7506 17.678 24.6707 17.678 24.5793C17.678 24.488 17.7465 24.4081 17.8378 24.4081H20.2239C20.3153 24.4081 20.3838 24.488 20.3838 24.5793Z" fill="#F3F3F3"/>
<path d="M20.3959 24.5794C20.3959 24.6821 20.316 24.7621 20.2246 24.7621H17.8385C17.7472 24.7621 17.6672 24.6821 17.6672 24.5794C17.6672 24.4766 17.7472 24.3967 17.8385 24.3967H20.2246C20.316 24.3967 20.3959 24.4766 20.3959 24.5794ZM17.6901 24.568C17.6901 24.6479 17.7586 24.7278 17.8385 24.7278H20.2246C20.3045 24.7278 20.373 24.6593 20.373 24.568C20.373 24.4881 20.3045 24.4081 20.2246 24.4081H17.8385C17.7586 24.4196 17.6901 24.4881 17.6901 24.568Z" fill="white"/>
<path d="M19.1173 23.4263C19.1059 23.5176 19.0374 23.5861 18.9461 23.5861L17.8843 23.5062C17.7929 23.4948 17.7244 23.4149 17.7359 23.3235C17.7473 23.2322 17.8158 23.1637 17.9071 23.1637L18.9689 23.2436C19.0488 23.255 19.1173 23.3349 19.1173 23.4263Z" fill="#E2E2E2"/>
<path d="M19.1285 23.4262C19.1171 23.529 19.0372 23.5975 18.9458 23.5975L17.8841 23.5176C17.7927 23.5061 17.7128 23.4262 17.7242 23.3235C17.7357 23.2207 17.8156 23.1522 17.9069 23.1522L18.9687 23.2321C19.06 23.2436 19.1285 23.3349 19.1285 23.4262ZM17.7357 23.3235C17.7242 23.4034 17.7927 23.4833 17.8727 23.4833L18.9344 23.5632C19.0143 23.5632 19.0828 23.5061 19.0943 23.4148C19.1057 23.3349 19.0372 23.255 18.9573 23.255L17.8955 23.1751C17.8156 23.1751 17.7471 23.2436 17.7357 23.3235Z" fill="white"/>
<path d="M20.5892 22.593C20.5664 22.6843 20.4865 22.7414 20.3952 22.73L18.0547 22.2505C17.9634 22.2277 17.9063 22.1478 17.9291 22.0564C17.9519 21.9651 18.0319 21.908 18.1232 21.9194L20.4637 22.3875C20.5436 22.4103 20.6007 22.5017 20.5892 22.593Z" fill="#F3F3F3"/>
<path d="M20.6007 22.5928C20.5779 22.6956 20.4866 22.7527 20.3952 22.7412L18.0548 22.2732C17.9634 22.2503 17.8949 22.159 17.9178 22.0562C17.9406 21.9535 18.0319 21.8964 18.1233 21.9078L20.4637 22.3759C20.5551 22.3987 20.6121 22.4901 20.6007 22.5928ZM17.9406 22.0562C17.9292 22.1362 17.9748 22.2161 18.0548 22.2389L20.3952 22.707C20.4751 22.7184 20.5551 22.6727 20.5779 22.5814C20.5893 22.5015 20.5436 22.4216 20.4637 22.3987L18.1233 21.9306C18.0319 21.9192 17.9634 21.9763 17.9406 22.0562Z" fill="white"/>
<path d="M19.562 21.2229C19.5392 21.3142 19.4478 21.3713 19.3565 21.3485L18.329 21.0631C18.2376 21.0402 18.192 20.9489 18.2148 20.8575C18.2376 20.7662 18.329 20.7091 18.4203 20.732L19.4478 21.0174C19.5392 21.0402 19.5848 21.1316 19.562 21.2229Z" fill="#F3F3F3"/>
<path d="M19.5735 21.2227C19.5507 21.3141 19.448 21.3826 19.3566 21.3483L18.3291 21.0629C18.2378 21.0401 18.1807 20.9373 18.2035 20.846C18.2264 20.7547 18.3291 20.6861 18.4204 20.7204L19.448 21.0058C19.5393 21.0287 19.5964 21.12 19.5735 21.2227ZM18.2378 20.846C18.2149 20.9259 18.2606 21.0172 18.3405 21.0401L19.368 21.3255C19.448 21.3483 19.5279 21.3027 19.5507 21.2113C19.5735 21.1314 19.5279 21.0401 19.448 21.0172L18.4204 20.7318C18.3405 20.7204 18.2606 20.7661 18.2378 20.846Z" fill="white"/>
<path d="M21.1719 20.6747C21.1376 20.7661 21.0349 20.8003 20.955 20.7661L18.7515 19.8527C18.6716 19.8185 18.6259 19.7157 18.6602 19.6358C18.6944 19.5445 18.7972 19.5102 18.8771 19.5445L21.0806 20.4578C21.1719 20.4921 21.2062 20.5948 21.1719 20.6747Z" fill="#F3F3F3"/>
<path d="M21.1839 20.6863C21.1496 20.7777 21.0469 20.8233 20.9555 20.7891L18.7521 19.8757C18.6607 19.8415 18.6265 19.7387 18.6607 19.636C18.695 19.5446 18.7977 19.499 18.8891 19.5332L21.0925 20.4466C21.1839 20.4922 21.2181 20.595 21.1839 20.6863ZM18.6836 19.6474C18.6493 19.7273 18.6836 19.8186 18.7635 19.8529L20.9669 20.7662C21.0469 20.8005 21.1268 20.7548 21.161 20.6749C21.1953 20.595 21.161 20.5037 21.0811 20.4694L18.8777 19.5561C18.7977 19.5332 18.7064 19.5675 18.6836 19.6474Z" fill="white"/>
<path d="M20.4295 19.1335C20.3838 19.2135 20.2925 19.2477 20.2126 19.2135L19.265 18.734C19.1851 18.6997 19.1508 18.597 19.1965 18.5056C19.2421 18.4257 19.3335 18.3915 19.4134 18.4257L20.361 18.9052C20.4409 18.9509 20.4752 19.0536 20.4295 19.1335Z" fill="#F3F3F3"/>
<path d="M20.441 19.145C20.3953 19.2364 20.2926 19.2706 20.2012 19.225L19.2536 18.7455C19.1623 18.6998 19.128 18.597 19.1737 18.5057C19.2194 18.4144 19.3221 18.3801 19.4135 18.4258L20.3611 18.9053C20.4524 18.9395 20.4866 19.0537 20.441 19.145ZM19.208 18.5171C19.1737 18.597 19.1965 18.6884 19.2765 18.7226L20.2241 19.2021C20.2926 19.2364 20.3839 19.2021 20.4296 19.1336C20.4638 19.0537 20.441 18.9624 20.3611 18.9281L19.402 18.4486C19.3335 18.4144 19.2422 18.4372 19.208 18.5171Z" fill="white"/>
<path d="M22.1081 18.9167C22.051 18.9966 21.9597 19.0194 21.8798 18.9623L19.9047 17.6494C19.8247 17.6037 19.8133 17.501 19.859 17.4211C19.9047 17.3411 20.0074 17.3183 20.0873 17.3754L22.0739 18.6998C22.1424 18.7454 22.1652 18.8482 22.1081 18.9167Z" fill="#F3F3F3"/>
<path d="M22.1196 18.928C22.0625 19.0079 21.9483 19.0308 21.8684 18.9851L19.8933 17.6608C19.8134 17.6037 19.7905 17.5009 19.8476 17.4096C19.9047 17.3297 20.0189 17.3068 20.0988 17.3525L22.0739 18.6769C22.1653 18.7339 22.1767 18.8481 22.1196 18.928ZM19.8705 17.421C19.8248 17.4895 19.8362 17.5923 19.9047 17.6379L21.8912 18.9623C21.9597 19.0079 22.0511 18.9851 22.0968 18.9166C22.1424 18.8481 22.131 18.7454 22.0625 18.6997L20.076 17.3753C20.0075 17.3297 19.9161 17.3525 19.8705 17.421Z" fill="white"/>
<path d="M21.6856 17.2611C21.6285 17.3296 21.5258 17.3525 21.4573 17.2954L20.6238 16.6446C20.5553 16.5875 20.5439 16.4848 20.601 16.4163C20.6581 16.3478 20.7608 16.3249 20.8293 16.382L21.6628 17.0328C21.7313 17.0899 21.7427 17.1926 21.6856 17.2611Z" fill="#F3F3F3"/>
<path d="M21.6968 17.2724C21.6397 17.3524 21.5255 17.3638 21.4456 17.3067L20.6122 16.6559C20.5322 16.5989 20.5208 16.4847 20.5779 16.4048C20.635 16.3248 20.7492 16.3134 20.8291 16.3705L21.6625 17.0213C21.7424 17.0784 21.7539 17.1925 21.6968 17.2724ZM20.6007 16.4162C20.5437 16.4847 20.5551 16.576 20.6236 16.6331L21.457 17.2839C21.5255 17.3295 21.6168 17.3181 21.6739 17.2496C21.731 17.1811 21.7196 17.0898 21.6511 17.0327L20.8177 16.3819C20.7492 16.3363 20.6578 16.3477 20.6007 16.4162Z" fill="white"/>
<path d="M23.3868 17.3753C23.3183 17.4438 23.2155 17.4438 23.1585 17.3753L21.4573 15.697C21.3888 15.6285 21.4003 15.5258 21.4573 15.4687C21.5258 15.4002 21.6286 15.4002 21.6857 15.4687L23.3754 17.147C23.4439 17.204 23.4439 17.3182 23.3868 17.3753Z" fill="#F3F3F3"/>
<path d="M23.3868 17.3867C23.3183 17.4552 23.2041 17.4552 23.1356 17.3867L21.4459 15.7084C21.3774 15.6399 21.3774 15.5258 21.4459 15.4573C21.5144 15.3888 21.6286 15.3888 21.6971 15.4573L23.3868 17.1355C23.4667 17.204 23.4667 17.3182 23.3868 17.3867ZM21.4687 15.4801C21.4117 15.5372 21.4117 15.6399 21.4687 15.697L23.1584 17.3753C23.2155 17.4324 23.3183 17.4324 23.3754 17.3753C23.4324 17.3182 23.4324 17.2155 23.3754 17.1584L21.6857 15.4687C21.6286 15.4116 21.5372 15.4116 21.4687 15.4801Z" fill="white"/>
<path d="M23.2841 15.674C23.2156 15.7311 23.1128 15.7311 23.0557 15.6626L22.3593 14.8634C22.3022 14.7949 22.3136 14.6921 22.3821 14.6351C22.4506 14.578 22.5534 14.578 22.6105 14.6465L23.3069 15.4456C23.364 15.5027 23.3526 15.6055 23.2841 15.674Z" fill="#F3F3F3"/>
<path d="M23.2956 15.6741C23.2156 15.7426 23.1129 15.7312 23.0444 15.6627L22.348 14.8635C22.2795 14.795 22.2909 14.6808 22.3708 14.6123C22.4507 14.5438 22.5535 14.5552 22.622 14.6237L23.3184 15.4229C23.3755 15.5028 23.3755 15.617 23.2956 15.6741ZM22.3822 14.6351C22.3137 14.6922 22.3137 14.7836 22.3594 14.8521L23.0558 15.6512C23.1129 15.7083 23.2042 15.7197 23.2727 15.6627C23.3412 15.6056 23.3412 15.5142 23.2956 15.4457L22.5991 14.6466C22.542 14.5781 22.4507 14.5781 22.3822 14.6351Z" fill="white"/>
<path d="M24.928 16.1081C24.848 16.1652 24.7453 16.1424 24.6996 16.0624L23.3638 14.0873C23.3182 14.0074 23.341 13.9046 23.4095 13.859C23.4894 13.8019 23.5922 13.8247 23.6379 13.9046L24.9622 15.8798C25.0193 15.9597 24.9965 16.0624 24.928 16.1081Z" fill="#F3F3F3"/>
<path d="M24.9282 16.1193C24.8483 16.1764 24.7341 16.1536 24.677 16.0737L23.3527 14.0986C23.2956 14.0186 23.3184 13.9045 23.4097 13.8474C23.4897 13.7903 23.6038 13.8131 23.6609 13.8931L24.9853 15.8682C25.0424 15.9595 25.0195 16.0623 24.9282 16.1193ZM23.4212 13.8702C23.3527 13.9159 23.3298 14.0072 23.3755 14.0757L24.6998 16.0508C24.7455 16.1193 24.8368 16.1308 24.9168 16.0851C24.9853 16.0394 25.0081 15.9481 24.9624 15.8796L23.6381 13.9159C23.5924 13.8474 23.4897 13.8246 23.4212 13.8702Z" fill="white"/>
<path d="M25.1678 14.4183C25.0878 14.464 24.9851 14.4412 24.9394 14.3613L24.4143 13.4365C24.3686 13.3566 24.4028 13.2538 24.4828 13.2082C24.5627 13.1625 24.6654 13.1853 24.7111 13.2652L25.2363 14.19C25.2705 14.2699 25.2477 14.3727 25.1678 14.4183Z" fill="#F3F3F3"/>
<path d="M25.1679 14.4298C25.0766 14.4754 24.9738 14.4526 24.9281 14.3727L24.403 13.4479C24.3573 13.368 24.3801 13.2538 24.4715 13.2082C24.5628 13.1625 24.6655 13.1853 24.7112 13.2652L25.2364 14.19C25.2821 14.2699 25.2592 14.3727 25.1679 14.4298ZM24.4829 13.2196C24.4144 13.2652 24.3801 13.3566 24.4258 13.4251L24.951 14.3498C24.9966 14.4183 25.088 14.4412 25.1565 14.4069C25.225 14.3613 25.2592 14.2699 25.2136 14.2014L24.6884 13.2767C24.6541 13.2082 24.5514 13.1739 24.4829 13.2196Z" fill="white"/>
<path d="M26.6866 15.1717C26.5953 15.206 26.504 15.1717 26.4697 15.0918L25.545 12.8883C25.5107 12.8084 25.5564 12.7057 25.6363 12.6714C25.7276 12.6372 25.819 12.6714 25.8532 12.7513L26.778 14.9548C26.8122 15.0347 26.7666 15.1375 26.6866 15.1717Z" fill="#F3F3F3"/>
<path d="M26.6859 15.1833C26.5946 15.2175 26.4918 15.1833 26.4461 15.0919L25.5214 12.8885C25.4871 12.7971 25.5328 12.6944 25.6241 12.6601C25.7155 12.6259 25.8182 12.6601 25.8639 12.7515L26.7887 14.9549C26.8229 15.0348 26.7772 15.1376 26.6859 15.1833ZM25.647 12.683C25.567 12.7172 25.5328 12.8085 25.567 12.877L26.4918 15.0805C26.5261 15.1604 26.6174 15.1947 26.6973 15.1604C26.7772 15.1262 26.8115 15.0348 26.7772 14.9663L25.8525 12.7629C25.8068 12.683 25.7269 12.6487 25.647 12.683Z" fill="white"/>
<path d="M27.2457 13.5507C27.1543 13.585 27.063 13.5393 27.0287 13.448L26.6976 12.4433C26.6634 12.3634 26.7205 12.2606 26.8004 12.2378C26.8803 12.215 26.9831 12.2492 27.0173 12.3406L27.3484 13.3452C27.3827 13.4252 27.337 13.5165 27.2457 13.5507Z" fill="#F3F3F3"/>
<path d="M27.2572 13.5622C27.1659 13.5964 27.0631 13.5508 27.0289 13.4594L26.6978 12.4547C26.6635 12.3634 26.7206 12.2606 26.812 12.2264C26.9033 12.1921 27.006 12.2378 27.0403 12.3292L27.3714 13.3338C27.3942 13.4252 27.3486 13.5279 27.2572 13.5622ZM26.812 12.2492C26.732 12.2721 26.6864 12.3634 26.7092 12.4433L27.0403 13.448C27.0631 13.5279 27.1545 13.5622 27.2344 13.5393C27.3143 13.5165 27.36 13.4252 27.3371 13.3453L27.006 12.3406C26.9832 12.2606 26.8919 12.215 26.812 12.2492Z" fill="white"/>
<path d="M28.5933 14.5897C28.502 14.6126 28.4106 14.5555 28.3992 14.4641L27.9197 12.1237C27.8969 12.0323 27.9654 11.9524 28.0567 11.9296C28.148 11.9068 28.2394 11.9638 28.2508 12.0552L28.7303 14.3956C28.7417 14.4756 28.6846 14.5669 28.5933 14.5897Z" fill="#F3F3F3"/>
<path d="M28.5927 14.6011C28.4899 14.6239 28.3986 14.5554 28.3758 14.4641L27.8963 12.1236C27.8734 12.0323 27.9419 11.9295 28.0333 11.9181C28.136 11.8953 28.2274 11.9638 28.2502 12.0551L28.7297 14.3956C28.7525 14.4869 28.6955 14.5783 28.5927 14.6011ZM28.0561 11.941C27.9762 11.9524 27.9191 12.0323 27.9305 12.1236L28.41 14.4641C28.4214 14.544 28.5128 14.6011 28.5927 14.5783C28.6726 14.5668 28.7297 14.4869 28.7183 14.3956L28.2388 12.0551C28.2159 11.9752 28.136 11.9295 28.0561 11.941Z" fill="white"/>
<path d="M29.4605 13.1054C29.3692 13.1168 29.2893 13.0597 29.2664 12.9684L29.1294 11.918C29.118 11.8267 29.1865 11.7468 29.2778 11.7353C29.3692 11.7239 29.4491 11.781 29.4719 11.8723L29.6089 12.9227C29.6203 13.014 29.5518 13.0939 29.4605 13.1054Z" fill="#F3F3F3"/>
<path d="M29.4602 13.1168C29.3575 13.1282 29.2661 13.0597 29.2547 12.9683L29.1177 11.918C29.1063 11.8267 29.1748 11.7353 29.2775 11.7239C29.3803 11.7125 29.4716 11.781 29.483 11.8723L29.62 12.9227C29.6315 13.014 29.563 13.1053 29.4602 13.1168ZM29.2889 11.7467C29.209 11.7582 29.1405 11.8381 29.1519 11.918L29.2889 12.9683C29.3004 13.0483 29.3803 13.1053 29.4602 13.0939C29.5401 13.0825 29.6086 13.0026 29.5972 12.9227L29.4602 11.8723C29.4488 11.7924 29.3689 11.7353 29.2889 11.7467Z" fill="white"/>
<path d="M30.6936 38.1197C38.1591 38.1197 44.2112 32.0677 44.2112 24.6022C44.2112 17.1366 38.1591 11.0846 30.6936 11.0846C23.228 11.0846 17.176 17.1366 17.176 24.6022C17.176 32.0677 23.228 38.1197 30.6936 38.1197Z" fill="url(#paint2_linear_1_10889)" fill-opacity="0.2"/>
<g filter="url(#filter2_d_1_10889)">
<path d="M40.0556 16.0281L29.1525 23.0152H29.1411V23.0266L29.1296 23.038L22.3252 34.2608L32.3264 26.2119L32.3378 26.2005V26.1891L40.0556 16.0281Z" fill="black" fill-opacity="0.05"/>
</g>
<path d="M39.8498 15.3774L29.0723 23.0381L32.269 26.212L39.8498 15.3774Z" fill="#CD151E"/>
<path d="M29.084 23.0152L30.6938 24.6021L39.8501 15.3773L29.084 23.0152Z" fill="#FA5153"/>
<path d="M29.0837 23.0153L32.2805 26.1891L21.5029 33.8499L29.0837 23.0153Z" fill="#ACACAC"/>
<path d="M21.5029 33.8499L30.6935 24.6022L29.0837 23.0153L21.5029 33.8499Z" fill="#EEEEEE"/>
</g>
<defs>
<filter id="filter0_d_1_10889" x="0.78" y="0" width="59.44" height="59.44" filterUnits="userSpaceOnUse" color-interpolation-filters="sRGB">
<feFlood flood-opacity="0" result="BackgroundImageFix"/>
<feColorMatrix in="SourceAlpha" type="matrix" values="0 0 0 0 0 0 0 0 0 0 0 0 0 0 0 0 0 0 127 0" result="hardAlpha"/>
<feOffset dy="5.22"/>
<feGaussianBlur stdDeviation="2.61"/>
<feComposite in2="hardAlpha" operator="out"/>
<feColorMatrix type="matrix" values="0 0 0 0 0 0 0 0 0 0 0 0 0 0 0 0 0 0 0.1 0"/>
<feBlend mode="normal" in2="BackgroundImageFix" result="effect1_dropShadow_1_10889"/>
<feBlend mode="normal" in="SourceGraphic" in2="effect1_dropShadow_1_10889" result="shape"/>
</filter>
<filter id="filter1_d_1_10889" x="12" y="8" width="37.2273" height="37.2272" filterUnits="userSpaceOnUse" color-interpolation-filters="sRGB">
<feFlood flood-opacity="0" result="BackgroundImageFix"/>
<feColorMatrix in="SourceAlpha" type="matrix" values="0 0 0 0 0 0 0 0 0 0 0 0 0 0 0 0 0 0 127 0" result="hardAlpha"/>
<feOffset dy="2"/>
<feGaussianBlur stdDeviation="2"/>
<feColorMatrix type="matrix" values="0 0 0 0 0 0 0 0 0 0 0 0 0 0 0 0 0 0 0.266007 0"/>
<feBlend mode="normal" in2="BackgroundImageFix" result="effect1_dropShadow_1_10889"/>
<feBlend mode="normal" in="SourceGraphic" in2="effect1_dropShadow_1_10889" result="shape"/>
</filter>
<filter id="filter2_d_1_10889" x="18.3252" y="13.0281" width="25.7305" height="26.2327" filterUnits="userSpaceOnUse" color-interpolation-filters="sRGB">
<feFlood flood-opacity="0" result="BackgroundImageFix"/>
<feColorMatrix in="SourceAlpha" type="matrix" values="0 0 0 0 0 0 0 0 0 0 0 0 0 0 0 0 0 0 127 0" result="hardAlpha"/>
<feOffset dy="1"/>
<feGaussianBlur stdDeviation="2"/>
<feColorMatrix type="matrix" values="0 0 0 0 0 0 0 0 0 0 0 0 0 0 0 0 0 0 1 0"/>
<feBlend mode="normal" in2="BackgroundImageFix" result="effect1_dropShadow_1_10889"/>
<feBlend mode="normal" in="SourceGraphic" in2="effect1_dropShadow_1_10889" result="shape"/>
</filter>
<linearGradient id="paint0_linear_1_10889" x1="30.6136" y1="39.2272" x2="30.6136" y2="10" gradientUnits="userSpaceOnUse">
<stop offset="0.25" stop-color="#DBDBDA"/>
<stop offset="1" stop-color="white"/>
</linearGradient>
<radialGradient id="paint1_radial_1_10889" cx="0" cy="0" r="1" gradientUnits="userSpaceOnUse" gradientTransform="translate(32.5126 21.6443) scale(16.5)">
<stop stop-color="#2ABCE1"/>
<stop offset="0.113629" stop-color="#2ABBE1"/>
<stop offset="1" stop-color="#3375F8"/>
</radialGradient>
<linearGradient id="paint2_linear_1_10889" x1="30.4368" y1="20.7371" x2="24.1275" y2="32.0563" gradientUnits="userSpaceOnUse">
<stop stop-opacity="0"/>
<stop offset="1"/>
</linearGradient>
</defs>
</svg>
