<svg width="61" height="60" viewBox="0 0 61 60" fill="none" xmlns="http://www.w3.org/2000/svg">
<g filter="url(#filter0_d_1_10795)">
<path d="M46.2357 48.1611C35.7558 49.2796 25.2442 49.2796 14.7643 48.1611C10.5855 47.7151 7.28489 44.4145 6.8389 40.2353C5.72037 29.7554 5.72037 19.2442 6.8389 8.76431C7.28489 4.58553 10.5855 1.28489 14.7643 0.838898C25.2442 -0.279633 35.7554 -0.279633 46.2353 0.838898C50.4145 1.28489 53.7151 4.58553 54.1611 8.76431C55.2796 19.2442 55.2796 29.7554 54.1611 40.2353C53.7151 44.4145 50.4148 47.7151 46.2357 48.1611Z" fill="url(#paint0_linear_1_10795)"/>
<path d="M16.2432 38.7548L18.2794 31.3202C17.0235 29.1444 16.3628 26.676 16.3636 24.1473C16.3668 16.2363 22.8047 9.80029 30.716 9.80029C34.5551 9.80217 38.1585 11.2962 40.8686 14.0082C43.5779 16.7202 45.0698 20.3249 45.0684 24.1589C45.0649 32.0693 38.6259 38.5065 30.716 38.5065C30.7154 38.5065 30.7166 38.5065 30.716 38.5065H30.7098C28.308 38.5055 25.9479 37.903 23.8515 36.7598L16.2432 38.7548Z" fill="white"/>
<path d="M30.7208 12.2241C24.1407 12.2241 18.7895 17.5733 18.7871 24.1484C18.7861 26.4015 19.4167 28.596 20.6107 30.4949L20.8946 30.946L19.6892 35.3463L24.2041 34.1625L24.6401 34.4209C26.4712 35.5076 28.5706 36.0823 30.7117 36.0834H30.7162C37.2912 36.0834 42.6424 30.7336 42.6451 24.158C42.6462 20.9716 41.4067 17.9752 39.1544 15.7213C36.9021 13.4673 33.9073 12.2255 30.7208 12.2241Z" fill="url(#paint1_linear_1_10795)"/>
<path fill-rule="evenodd" clip-rule="evenodd" d="M27.1286 18.1489C26.8598 17.5519 26.577 17.5398 26.3217 17.5293C26.1125 17.5205 25.8733 17.521 25.6343 17.521C25.3951 17.521 25.0067 17.6108 24.6782 17.9696C24.3494 18.3285 23.4229 19.1959 23.4229 20.9604C23.4229 22.7248 24.708 24.4296 24.887 24.6691C25.0663 24.9084 27.3679 28.6448 31.0132 30.0821C34.0423 31.2767 34.6587 31.039 35.3165 30.9794C35.974 30.9197 37.4382 30.1119 37.7368 29.2746C38.0357 28.4373 38.0357 27.7198 37.9462 27.5698C37.8564 27.4201 37.6175 27.3306 37.2586 27.1513C36.9 26.972 35.1369 26.1043 34.8082 25.9847C34.4794 25.865 34.2405 25.8054 34.0012 26.1642C33.7622 26.5231 33.0754 27.3306 32.866 27.5698C32.6569 27.8093 32.4478 27.8392 32.0889 27.6599C31.7303 27.48 30.5753 27.1018 29.2052 25.8801C28.1391 24.9296 27.4195 23.7557 27.2101 23.3969C27.0009 23.038 27.1878 22.8439 27.3676 22.6652C27.5286 22.5044 27.7262 22.2464 27.9057 22.037C28.0845 21.8276 28.1444 21.6781 28.2638 21.4391C28.3834 21.1996 28.3237 20.9902 28.234 20.8109C28.1444 20.6316 27.4474 18.858 27.1286 18.1489Z" fill="white"/>
</g>
<defs>
<filter id="filter0_d_1_10795" x="0.777778" y="0" width="59.4444" height="59.4444" filterUnits="userSpaceOnUse" color-interpolation-filters="sRGB">
<feFlood flood-opacity="0" result="BackgroundImageFix"/>
<feColorMatrix in="SourceAlpha" type="matrix" values="0 0 0 0 0 0 0 0 0 0 0 0 0 0 0 0 0 0 127 0" result="hardAlpha"/>
<feOffset dy="5.22222"/>
<feGaussianBlur stdDeviation="2.61111"/>
<feComposite in2="hardAlpha" operator="out"/>
<feColorMatrix type="matrix" values="0 0 0 0 0 0 0 0 0 0 0 0 0 0 0 0 0 0 0.1 0"/>
<feBlend mode="normal" in2="BackgroundImageFix" result="effect1_dropShadow_1_10795"/>
<feBlend mode="normal" in="SourceGraphic" in2="effect1_dropShadow_1_10795" result="shape"/>
</filter>
<linearGradient id="paint0_linear_1_10795" x1="30.0012" y1="2.94053" x2="30.2497" y2="44.8138" gradientUnits="userSpaceOnUse">
<stop stop-color="#57D163"/>
<stop offset="1" stop-color="#23B33A"/>
</linearGradient>
<linearGradient id="paint1_linear_1_10795" x1="30.4732" y1="13.6559" x2="30.5942" y2="34.0451" gradientUnits="userSpaceOnUse">
<stop stop-color="#57D163"/>
<stop offset="1" stop-color="#23B33A"/>
</linearGradient>
</defs>
</svg>
