<svg width="61" height="60" viewBox="0 0 61 60" fill="none" xmlns="http://www.w3.org/2000/svg">
<g filter="url(#filter0_d_1_10781)">
<path d="M46.2357 48.1611C35.7558 49.2796 25.2442 49.2796 14.7643 48.1611C10.5855 47.7151 7.28489 44.4145 6.8389 40.2353C5.72037 29.7554 5.72037 19.2442 6.8389 8.76431C7.28489 4.58553 10.5855 1.28489 14.7643 0.838898C25.2442 -0.279633 35.7554 -0.279633 46.2353 0.838898C50.4145 1.28489 53.7151 4.58553 54.1611 8.76431C55.2796 19.2442 55.2796 29.7554 54.1611 40.2353C53.7151 44.4145 50.4148 47.7151 46.2357 48.1611Z" fill="white"/>
<path d="M45.9964 17.3666C45.8103 16.679 45.4473 16.0521 44.9436 15.5484C44.4399 15.0447 43.813 14.6817 43.1254 14.4956C40.6081 13.8091 30.4764 13.8091 30.4764 13.8091C30.4764 13.8091 20.3448 13.8299 17.8275 14.5164C17.1398 14.7025 16.513 15.0655 16.0092 15.5692C15.5055 16.0729 15.1426 16.6998 14.9565 17.3874C14.1951 21.8603 13.8996 28.6758 14.9773 32.9697C15.1634 33.6574 15.5263 34.2843 16.03 34.788C16.5338 35.2917 17.1606 35.6547 17.8483 35.8407C20.3656 36.5273 30.4972 36.5273 30.4972 36.5273C30.4972 36.5273 40.6289 36.5273 43.1462 35.8407C43.8338 35.6547 44.4607 35.2917 44.9644 34.788C45.4681 34.2843 45.8311 33.6574 46.0172 32.9697C46.8202 28.4906 47.0678 21.6793 45.9964 17.3666Z" fill="#FF0000"/>
<path d="M27.2522 30.0358L35.6571 25.1676L27.2522 20.2994V30.0358Z" fill="white"/>
</g>
<defs>
<filter id="filter0_d_1_10781" x="0.78" y="0" width="59.44" height="59.44" filterUnits="userSpaceOnUse" color-interpolation-filters="sRGB">
<feFlood flood-opacity="0" result="BackgroundImageFix"/>
<feColorMatrix in="SourceAlpha" type="matrix" values="0 0 0 0 0 0 0 0 0 0 0 0 0 0 0 0 0 0 127 0" result="hardAlpha"/>
<feOffset dy="5.22"/>
<feGaussianBlur stdDeviation="2.61"/>
<feComposite in2="hardAlpha" operator="out"/>
<feColorMatrix type="matrix" values="0 0 0 0 0 0 0 0 0 0 0 0 0 0 0 0 0 0 0.1 0"/>
<feBlend mode="normal" in2="BackgroundImageFix" result="effect1_dropShadow_1_10781"/>
<feBlend mode="normal" in="SourceGraphic" in2="effect1_dropShadow_1_10781" result="shape"/>
</filter>
</defs>
</svg>
